  0
SECTION
  2
HEADER
  9
$ANGBASE
  50
0.0
  9
$ANGDIR
  70
1
  9
$MEASUREMENT
  70
1
  0
ENDSEC
  0
SECTION
  2
TABLES
  0
TABLE
  2
LTYPE
  70
4
  0
LTYPE
  5
40F
  2
CONTINUOUS
  70
0
  3
Solid line
  72
65
  73
0
  40
0.0
  0
LTYPE
  5
410
  2
DASHDOT
 70
0
  3
Dash Dot ____ _ ____ _
 72
65
 73
4
 40
2.0
 49
1.25
 49
-0.25
 49
0.25
 49
-0.25
  0
LTYPE
  5
411
  2
DASHED
 70
0
  3
Dashed __ __ __ __ __
 72
65
 73
2
 40
0.75
 49
0.5
 49
-0.25
  0
LTYPE
  5
43B
  2
DOTTED
 70
0
  3
Dotted .  .  .  .
 72
65
 73
2
 40
0.2
 49
0.0
 49
-0.2
  0
ENDTAB
  0
TABLE
  2
STYLE
  70
4
  0
STYLE
  2
KICAD
  70
0
  40
0
  41
1
  42
1
  50
0
  71
0
  3
isocp.shx
  0
STYLE
  2
KICADB
  70
0
  40
0
  41
1
  42
1
  50
0
  71
0
  3
isocp.shx
  0
STYLE
  2
KICADI
  70
0
  40
0
  41
1
  42
1
  50
15
  71
0
  3
isocp.shx
  0
STYLE
  2
KICADBI
  70
0
  40
0
  41
1
  42
1
  50
15
  71
0
  3
isocp.shx
  0
ENDTAB
  0
TABLE
  2
LAYER
  70
1
  0
LAYER
  2
BLACK
  70
0
  62
7
  6
CONTINUOUS
  0
ENDTAB
  0
ENDSEC
  0
SECTION
  2
ENTITIES
0
LINE
8
BLACK
6
CONTINUOUS
10
207.25
20
-71.4500000000000028
11
207.622464999999977
21
-71.4682979999999901
0
LINE
8
BLACK
6
CONTINUOUS
10
207.622464999999977
20
-71.4682979999999901
11
207.9913430000000005
21
-71.5230159999999984
0
LINE
8
BLACK
6
CONTINUOUS
10
207.9913430000000005
20
-71.5230159999999984
11
208.3530820000000006
21
-71.6136269999999939
0
LINE
8
BLACK
6
CONTINUOUS
10
208.3530820000000006
20
-71.6136269999999939
11
208.7041969999999935
21
-71.7392579999999924
0
LINE
8
BLACK
6
CONTINUOUS
10
208.7041969999999935
20
-71.7392579999999924
11
209.0413079999999866
21
-71.8986989999999935
0
LINE
8
BLACK
6
CONTINUOUS
10
209.0413079999999866
20
-71.8986989999999935
11
209.3611669999999947
21
-72.090414999999993
0
LINE
8
BLACK
6
CONTINUOUS
10
209.3611669999999947
20
-72.090414999999993
11
209.6606939999999781
21
-72.3125599999999906
0
LINE
8
BLACK
6
CONTINUOUS
10
209.6606939999999781
20
-72.3125599999999906
11
209.9370059999999967
21
-72.5629940000000033
0
LINE
8
BLACK
6
CONTINUOUS
10
209.9370059999999967
20
-72.5629940000000033
11
210.187439999999981
21
-72.8393059999999934
0
LINE
8
BLACK
6
CONTINUOUS
10
210.187439999999981
20
-72.8393059999999934
11
210.4095849999999928
21
-73.1388329999999911
0
LINE
8
BLACK
6
CONTINUOUS
10
210.4095849999999928
20
-73.1388329999999911
11
210.6013009999999781
21
-73.4586919999999992
0
LINE
8
BLACK
6
CONTINUOUS
10
210.6013009999999781
20
-73.4586919999999992
11
210.7607419999999934
21
-73.7958029999999923
0
LINE
8
BLACK
6
CONTINUOUS
10
210.7607419999999934
20
-73.7958029999999923
11
210.8863729999999919
21
-74.1469179999999994
0
LINE
8
BLACK
6
CONTINUOUS
10
210.8863729999999919
20
-74.1469179999999994
11
210.9769839999999874
21
-74.5086569999999995
0
LINE
8
BLACK
6
CONTINUOUS
10
210.9769839999999874
20
-74.5086569999999995
11
211.0317019999999957
21
-74.8775349999999946
0
LINE
8
BLACK
6
CONTINUOUS
10
211.0317019999999957
20
-74.8775349999999946
11
211.0499999999999829
21
-75.25
0
LINE
8
BLACK
6
CONTINUOUS
10
211.0499999999999829
20
-75.25
11
211.0499999999999829
21
-131.75
0
LINE
8
BLACK
6
CONTINUOUS
10
211.0499999999999829
20
-131.75
11
211.0317019999999957
21
-132.1224650000000054
0
LINE
8
BLACK
6
CONTINUOUS
10
211.0317019999999957
20
-132.1224650000000054
11
210.9769839999999874
21
-132.4913430000000005
0
LINE
8
BLACK
6
CONTINUOUS
10
210.9769839999999874
20
-132.4913430000000005
11
210.8863729999999919
21
-132.8530820000000006
0
LINE
8
BLACK
6
CONTINUOUS
10
210.8863729999999919
20
-132.8530820000000006
11
210.7607419999999934
21
-133.2041969999999935
0
LINE
8
BLACK
6
CONTINUOUS
10
210.7607419999999934
20
-133.2041969999999935
11
210.6013009999999781
21
-133.5413079999999866
0
LINE
8
BLACK
6
CONTINUOUS
10
210.6013009999999781
20
-133.5413079999999866
11
210.4095849999999928
21
-133.8611669999999947
0
LINE
8
BLACK
6
CONTINUOUS
10
210.4095849999999928
20
-133.8611669999999947
11
210.187439999999981
21
-134.1606940000000066
0
LINE
8
BLACK
6
CONTINUOUS
10
210.187439999999981
20
-134.1606940000000066
11
209.9370059999999967
21
-134.4370059999999967
0
LINE
8
BLACK
6
CONTINUOUS
10
209.9370059999999967
20
-134.4370059999999967
11
209.6606939999999781
21
-134.687439999999981
0
LINE
8
BLACK
6
CONTINUOUS
10
209.6606939999999781
20
-134.687439999999981
11
209.3611669999999947
21
-134.9095849999999928
0
LINE
8
BLACK
6
CONTINUOUS
10
209.3611669999999947
20
-134.9095849999999928
11
209.0413079999999866
21
-135.1013010000000065
0
LINE
8
BLACK
6
CONTINUOUS
10
209.0413079999999866
20
-135.1013010000000065
11
208.7041969999999935
21
-135.2607419999999934
0
LINE
8
BLACK
6
CONTINUOUS
10
208.7041969999999935
20
-135.2607419999999934
11
208.3530820000000006
21
-135.3863729999999919
0
LINE
8
BLACK
6
CONTINUOUS
10
208.3530820000000006
20
-135.3863729999999919
11
207.9913430000000005
21
-135.4769839999999874
0
LINE
8
BLACK
6
CONTINUOUS
10
207.9913430000000005
20
-135.4769839999999874
11
207.622464999999977
21
-135.5317019999999957
0
LINE
8
BLACK
6
CONTINUOUS
10
207.622464999999977
20
-135.5317019999999957
11
207.25
21
-135.5499999999999829
0
LINE
8
BLACK
6
CONTINUOUS
10
207.25
20
-135.5499999999999829
11
110.75
21
-135.5499999999999829
0
LINE
8
BLACK
6
CONTINUOUS
10
110.75
20
-135.5499999999999829
11
110.3775349999999946
21
-135.5317019999999957
0
LINE
8
BLACK
6
CONTINUOUS
10
110.3775349999999946
20
-135.5317019999999957
11
110.0086569999999995
21
-135.4769839999999874
0
LINE
8
BLACK
6
CONTINUOUS
10
110.0086569999999995
20
-135.4769839999999874
11
109.6469179999999994
21
-135.3863729999999919
0
LINE
8
BLACK
6
CONTINUOUS
10
109.6469179999999994
20
-135.3863729999999919
11
109.2958029999999923
21
-135.2607419999999934
0
LINE
8
BLACK
6
CONTINUOUS
10
109.2958029999999923
20
-135.2607419999999934
11
108.9586919999999992
21
-135.1013010000000065
0
LINE
8
BLACK
6
CONTINUOUS
10
108.9586919999999992
20
-135.1013010000000065
11
108.6388329999999911
21
-134.9095849999999928
0
LINE
8
BLACK
6
CONTINUOUS
10
108.6388329999999911
20
-134.9095849999999928
11
108.3393059999999934
21
-134.687439999999981
0
LINE
8
BLACK
6
CONTINUOUS
10
108.3393059999999934
20
-134.687439999999981
11
108.0629939999999891
21
-134.4370059999999967
0
LINE
8
BLACK
6
CONTINUOUS
10
108.0629939999999891
20
-134.4370059999999967
11
107.8125599999999906
21
-134.1606940000000066
0
LINE
8
BLACK
6
CONTINUOUS
10
107.8125599999999906
20
-134.1606940000000066
11
107.590414999999993
21
-133.8611669999999947
0
LINE
8
BLACK
6
CONTINUOUS
10
107.590414999999993
20
-133.8611669999999947
11
107.3986989999999935
21
-133.5413079999999866
0
LINE
8
BLACK
6
CONTINUOUS
10
107.3986989999999935
20
-133.5413079999999866
11
107.2392579999999924
21
-133.2041969999999935
0
LINE
8
BLACK
6
CONTINUOUS
10
107.2392579999999924
20
-133.2041969999999935
11
107.1136269999999939
21
-132.8530820000000006
0
LINE
8
BLACK
6
CONTINUOUS
10
107.1136269999999939
20
-132.8530820000000006
11
107.0230159999999984
21
-132.4913430000000005
0
LINE
8
BLACK
6
CONTINUOUS
10
107.0230159999999984
20
-132.4913430000000005
11
106.9682979999999901
21
-132.1224650000000054
0
LINE
8
BLACK
6
CONTINUOUS
10
106.9682979999999901
20
-132.1224650000000054
11
106.9499999999999886
21
-131.75
0
LINE
8
BLACK
6
CONTINUOUS
10
106.9499999999999886
20
-131.75
11
106.9499999999999886
21
-75.25
0
LINE
8
BLACK
6
CONTINUOUS
10
106.9499999999999886
20
-75.25
11
106.9682979999999901
21
-74.8775349999999946
0
LINE
8
BLACK
6
CONTINUOUS
10
106.9682979999999901
20
-74.8775349999999946
11
107.0230159999999984
21
-74.5086569999999995
0
LINE
8
BLACK
6
CONTINUOUS
10
107.0230159999999984
20
-74.5086569999999995
11
107.1136269999999939
21
-74.1469179999999994
0
LINE
8
BLACK
6
CONTINUOUS
10
107.1136269999999939
20
-74.1469179999999994
11
107.2392579999999924
21
-73.7958029999999923
0
LINE
8
BLACK
6
CONTINUOUS
10
107.2392579999999924
20
-73.7958029999999923
11
107.3986989999999935
21
-73.4586919999999992
0
LINE
8
BLACK
6
CONTINUOUS
10
107.3986989999999935
20
-73.4586919999999992
11
107.590414999999993
21
-73.1388329999999911
0
LINE
8
BLACK
6
CONTINUOUS
10
107.590414999999993
20
-73.1388329999999911
11
107.8125599999999906
21
-72.8393059999999934
0
LINE
8
BLACK
6
CONTINUOUS
10
107.8125599999999906
20
-72.8393059999999934
11
108.0629939999999891
21
-72.5629940000000033
0
LINE
8
BLACK
6
CONTINUOUS
10
108.0629939999999891
20
-72.5629940000000033
11
108.3393059999999934
21
-72.3125599999999906
0
LINE
8
BLACK
6
CONTINUOUS
10
108.3393059999999934
20
-72.3125599999999906
11
108.6388329999999911
21
-72.090414999999993
0
LINE
8
BLACK
6
CONTINUOUS
10
108.6388329999999911
20
-72.090414999999993
11
108.9586919999999992
21
-71.8986989999999935
0
LINE
8
BLACK
6
CONTINUOUS
10
108.9586919999999992
20
-71.8986989999999935
11
109.2958029999999923
21
-71.7392579999999924
0
LINE
8
BLACK
6
CONTINUOUS
10
109.2958029999999923
20
-71.7392579999999924
11
109.6469179999999994
21
-71.6136269999999939
0
LINE
8
BLACK
6
CONTINUOUS
10
109.6469179999999994
20
-71.6136269999999939
11
110.0086569999999995
21
-71.5230159999999984
0
LINE
8
BLACK
6
CONTINUOUS
10
110.0086569999999995
20
-71.5230159999999984
11
110.3775349999999946
21
-71.4682979999999901
0
LINE
8
BLACK
6
CONTINUOUS
10
110.3775349999999946
20
-71.4682979999999901
11
110.75
21
-71.4500000000000028
0
LINE
8
BLACK
6
CONTINUOUS
10
110.75
20
-71.4500000000000028
11
207.25
21
-71.4500000000000028
0
LINE
8
BLACK
6
CONTINUOUS
10
110.75
20
-71.5499999999999972
11
110.5682309999999973
21
-71.5499999999999972
0
LINE
8
BLACK
6
CONTINUOUS
10
110.5682309999999973
20
-71.5499999999999972
11
110.206442999999993
21
-71.5856330000000014
0
LINE
8
BLACK
6
CONTINUOUS
10
110.206442999999993
20
-71.5856330000000014
11
109.8498889999999903
21
-71.6565559999999948
0
LINE
8
BLACK
6
CONTINUOUS
10
109.8498889999999903
20
-71.6565559999999948
11
109.5020039999999995
21
-71.7620859999999965
0
LINE
8
BLACK
6
CONTINUOUS
10
109.5020039999999995
20
-71.7620859999999965
11
109.1661379999999895
21
-71.9012060000000019
0
LINE
8
BLACK
6
CONTINUOUS
10
109.1661379999999895
20
-71.9012060000000019
11
108.8455259999999925
21
-72.0725769999999955
0
LINE
8
BLACK
6
CONTINUOUS
10
108.8455259999999925
20
-72.0725769999999955
11
108.543255000000002
21
-72.2745479999999958
0
LINE
8
BLACK
6
CONTINUOUS
10
108.543255000000002
20
-72.2745479999999958
11
108.2622349999999898
21
-72.5051749999999942
0
LINE
8
BLACK
6
CONTINUOUS
10
108.2622349999999898
20
-72.5051749999999942
11
108.0051749999999942
21
-72.7622349999999898
0
LINE
8
BLACK
6
CONTINUOUS
10
108.0051749999999942
20
-72.7622349999999898
11
107.7745479999999958
21
-73.043255000000002
0
LINE
8
BLACK
6
CONTINUOUS
10
107.7745479999999958
20
-73.043255000000002
11
107.5725769999999955
21
-73.3455259999999925
0
LINE
8
BLACK
6
CONTINUOUS
10
107.5725769999999955
20
-73.3455259999999925
11
107.4012060000000019
21
-73.6661380000000037
0
LINE
8
BLACK
6
CONTINUOUS
10
107.4012060000000019
20
-73.6661380000000037
11
107.2620859999999965
21
-74.0020039999999995
0
LINE
8
BLACK
6
CONTINUOUS
10
107.2620859999999965
20
-74.0020039999999995
11
107.1565559999999948
21
-74.3498889999999903
0
LINE
8
BLACK
6
CONTINUOUS
10
107.1565559999999948
20
-74.3498889999999903
11
107.0856330000000014
21
-74.706442999999993
0
LINE
8
BLACK
6
CONTINUOUS
10
107.0856330000000014
20
-74.706442999999993
11
107.0499999999999972
21
-75.0682309999999973
0
LINE
8
BLACK
6
CONTINUOUS
10
107.0499999999999972
20
-75.0682309999999973
11
107.0499999999999972
21
-75.25
0
LINE
8
BLACK
6
CONTINUOUS
10
107.0499999999999972
20
-75.25
11
107.0499999999999972
21
-131.75
0
LINE
8
BLACK
6
CONTINUOUS
10
107.0499999999999972
20
-131.75
11
107.0499999999999972
21
-131.9317690000000027
0
LINE
8
BLACK
6
CONTINUOUS
10
107.0499999999999972
20
-131.9317690000000027
11
107.0856330000000014
21
-132.2935569999999927
0
LINE
8
BLACK
6
CONTINUOUS
10
107.0856330000000014
20
-132.2935569999999927
11
107.1565559999999948
21
-132.6501109999999812
0
LINE
8
BLACK
6
CONTINUOUS
10
107.1565559999999948
20
-132.6501109999999812
11
107.2620859999999965
21
-132.9979960000000005
0
LINE
8
BLACK
6
CONTINUOUS
10
107.2620859999999965
20
-132.9979960000000005
11
107.4012060000000019
21
-133.3338619999999821
0
LINE
8
BLACK
6
CONTINUOUS
10
107.4012060000000019
20
-133.3338619999999821
11
107.5725769999999955
21
-133.6544739999999933
0
LINE
8
BLACK
6
CONTINUOUS
10
107.5725769999999955
20
-133.6544739999999933
11
107.7745479999999958
21
-133.9567449999999837
0
LINE
8
BLACK
6
CONTINUOUS
10
107.7745479999999958
20
-133.9567449999999837
11
108.0051749999999942
21
-134.237764999999996
0
LINE
8
BLACK
6
CONTINUOUS
10
108.0051749999999942
20
-134.237764999999996
11
108.2622349999999898
21
-134.4948249999999916
0
LINE
8
BLACK
6
CONTINUOUS
10
108.2622349999999898
20
-134.4948249999999916
11
108.543255000000002
21
-134.72545199999999
0
LINE
8
BLACK
6
CONTINUOUS
10
108.543255000000002
20
-134.72545199999999
11
108.8455259999999925
21
-134.9274230000000045
0
LINE
8
BLACK
6
CONTINUOUS
10
108.8455259999999925
20
-134.9274230000000045
11
109.1661379999999895
21
-135.0987939999999981
0
LINE
8
BLACK
6
CONTINUOUS
10
109.1661379999999895
20
-135.0987939999999981
11
109.5020039999999995
21
-135.2379139999999893
0
LINE
8
BLACK
6
CONTINUOUS
10
109.5020039999999995
20
-135.2379139999999893
11
109.8498889999999903
21
-135.3434440000000052
0
LINE
8
BLACK
6
CONTINUOUS
10
109.8498889999999903
20
-135.3434440000000052
11
110.206442999999993
21
-135.4143669999999986
0
LINE
8
BLACK
6
CONTINUOUS
10
110.206442999999993
20
-135.4143669999999986
11
110.5682309999999973
21
-135.4499999999999886
0
LINE
8
BLACK
6
CONTINUOUS
10
110.5682309999999973
20
-135.4499999999999886
11
110.75
21
-135.4499999999999886
0
LINE
8
BLACK
6
CONTINUOUS
10
110.75
20
-135.4499999999999886
11
207.25
21
-135.4499999999999886
0
LINE
8
BLACK
6
CONTINUOUS
10
207.25
20
-135.4499999999999886
11
207.4317690000000027
21
-135.4499999999999886
0
LINE
8
BLACK
6
CONTINUOUS
10
207.4317690000000027
20
-135.4499999999999886
11
207.7935569999999927
21
-135.4143669999999986
0
LINE
8
BLACK
6
CONTINUOUS
10
207.7935569999999927
20
-135.4143669999999986
11
208.1501109999999812
21
-135.3434440000000052
0
LINE
8
BLACK
6
CONTINUOUS
10
208.1501109999999812
20
-135.3434440000000052
11
208.4979960000000005
21
-135.2379139999999893
0
LINE
8
BLACK
6
CONTINUOUS
10
208.4979960000000005
20
-135.2379139999999893
11
208.8338619999999821
21
-135.0987939999999981
0
LINE
8
BLACK
6
CONTINUOUS
10
208.8338619999999821
20
-135.0987939999999981
11
209.1544739999999933
21
-134.9274230000000045
0
LINE
8
BLACK
6
CONTINUOUS
10
209.1544739999999933
20
-134.9274230000000045
11
209.4567449999999837
21
-134.72545199999999
0
LINE
8
BLACK
6
CONTINUOUS
10
209.4567449999999837
20
-134.72545199999999
11
209.737764999999996
21
-134.4948249999999916
0
LINE
8
BLACK
6
CONTINUOUS
10
209.737764999999996
20
-134.4948249999999916
11
209.9948249999999916
21
-134.237764999999996
0
LINE
8
BLACK
6
CONTINUOUS
10
209.9948249999999916
20
-134.237764999999996
11
210.22545199999999
21
-133.9567449999999837
0
LINE
8
BLACK
6
CONTINUOUS
10
210.22545199999999
20
-133.9567449999999837
11
210.4274230000000045
21
-133.6544739999999933
0
LINE
8
BLACK
6
CONTINUOUS
10
210.4274230000000045
20
-133.6544739999999933
11
210.5987939999999981
21
-133.3338619999999821
0
LINE
8
BLACK
6
CONTINUOUS
10
210.5987939999999981
20
-133.3338619999999821
11
210.7379139999999893
21
-132.9979960000000005
0
LINE
8
BLACK
6
CONTINUOUS
10
210.7379139999999893
20
-132.9979960000000005
11
210.8434439999999768
21
-132.6501109999999812
0
LINE
8
BLACK
6
CONTINUOUS
10
210.8434439999999768
20
-132.6501109999999812
11
210.9143669999999986
21
-132.2935569999999927
0
LINE
8
BLACK
6
CONTINUOUS
10
210.9143669999999986
20
-132.2935569999999927
11
210.9499999999999886
21
-131.9317690000000027
0
LINE
8
BLACK
6
CONTINUOUS
10
210.9499999999999886
20
-131.9317690000000027
11
210.9499999999999886
21
-131.75
0
LINE
8
BLACK
6
CONTINUOUS
10
210.9499999999999886
20
-131.75
11
210.9499999999999886
21
-75.25
0
LINE
8
BLACK
6
CONTINUOUS
10
210.9499999999999886
20
-75.25
11
210.9499999999999886
21
-75.0682309999999973
0
LINE
8
BLACK
6
CONTINUOUS
10
210.9499999999999886
20
-75.0682309999999973
11
210.9143669999999986
21
-74.706442999999993
0
LINE
8
BLACK
6
CONTINUOUS
10
210.9143669999999986
20
-74.706442999999993
11
210.8434439999999768
21
-74.3498889999999903
0
LINE
8
BLACK
6
CONTINUOUS
10
210.8434439999999768
20
-74.3498889999999903
11
210.7379139999999893
21
-74.0020039999999995
0
LINE
8
BLACK
6
CONTINUOUS
10
210.7379139999999893
20
-74.0020039999999995
11
210.5987939999999981
21
-73.6661380000000037
0
LINE
8
BLACK
6
CONTINUOUS
10
210.5987939999999981
20
-73.6661380000000037
11
210.4274230000000045
21
-73.3455259999999925
0
LINE
8
BLACK
6
CONTINUOUS
10
210.4274230000000045
20
-73.3455259999999925
11
210.22545199999999
21
-73.043255000000002
0
LINE
8
BLACK
6
CONTINUOUS
10
210.22545199999999
20
-73.043255000000002
11
209.9948249999999916
21
-72.7622349999999898
0
LINE
8
BLACK
6
CONTINUOUS
10
209.9948249999999916
20
-72.7622349999999898
11
209.737764999999996
21
-72.5051749999999942
0
LINE
8
BLACK
6
CONTINUOUS
10
209.737764999999996
20
-72.5051749999999942
11
209.4567449999999837
21
-72.2745479999999958
0
LINE
8
BLACK
6
CONTINUOUS
10
209.4567449999999837
20
-72.2745479999999958
11
209.1544739999999933
21
-72.0725769999999955
0
LINE
8
BLACK
6
CONTINUOUS
10
209.1544739999999933
20
-72.0725769999999955
11
208.8338619999999821
21
-71.9012060000000019
0
LINE
8
BLACK
6
CONTINUOUS
10
208.8338619999999821
20
-71.9012060000000019
11
208.4979960000000005
21
-71.7620859999999965
0
LINE
8
BLACK
6
CONTINUOUS
10
208.4979960000000005
20
-71.7620859999999965
11
208.1501109999999812
21
-71.6565559999999948
0
LINE
8
BLACK
6
CONTINUOUS
10
208.1501109999999812
20
-71.6565559999999948
11
207.7935569999999927
21
-71.5856330000000014
0
LINE
8
BLACK
6
CONTINUOUS
10
207.7935569999999927
20
-71.5856330000000014
11
207.4317690000000027
21
-71.5499999999999972
0
LINE
8
BLACK
6
CONTINUOUS
10
207.4317690000000027
20
-71.5499999999999972
11
207.25
21
-71.5499999999999972
0
LINE
8
BLACK
6
CONTINUOUS
10
207.25
20
-71.5499999999999972
11
110.75
21
-71.5499999999999972
  0
ENDSEC
  0
EOF
