M48
; DRILL file {KiCad 7.0.9} date Wed Feb  7 13:51:32 2024
; FORMAT={-:-/ absolute / metric / decimal}
; #@! TF.CreationDate,2024-02-07T13:51:32-05:00
; #@! TF.GenerationSoftware,Kicad,Pcbnew,7.0.9
; #@! TF.FileFunction,Plated,1,4,PTH
FMAT,2
METRIC
; #@! TA.AperFunction,Plated,PTH,ViaDrill
T1C0.300
; #@! TA.AperFunction,Plated,PTH,ViaDrill
T2C0.400
; #@! TA.AperFunction,Plated,PTH,ComponentDrill
T3C0.660
; #@! TA.AperFunction,Plated,PTH,ComponentDrill
T4C1.000
; #@! TA.AperFunction,Plated,PTH,ComponentDrill
T5C1.092
; #@! TA.AperFunction,Plated,PTH,ComponentDrill
T6C2.134
; #@! TA.AperFunction,Plated,PTH,ComponentDrill
T7C2.200
%
G90
G05
T1
X112.0Y-121.5
X112.0Y-126.5
X117.0Y-76.5
X117.0Y-81.5
X117.0Y-101.5
X117.0Y-116.5
X117.0Y-126.5
X119.845Y-108.752
X120.0Y-132.0
X121.75Y-132.0
X121.845Y-108.752
X122.0Y-81.5
X122.0Y-101.5
X123.716Y-93.94
X123.716Y-95.94
X127.0Y-76.5
X127.0Y-81.5
X127.0Y-101.5
X127.895Y-108.752
X129.845Y-108.752
X132.0Y-81.5
X132.0Y-96.5
X132.0Y-121.5
X133.825Y-90.365
X133.825Y-92.365
X135.845Y-108.752
X137.0Y-76.5
X137.0Y-81.5
X137.0Y-101.5
X137.0Y-121.6
X137.845Y-108.752
X138.365Y-83.385
X138.365Y-85.385
X138.365Y-87.385
X138.365Y-89.385
X140.0Y-73.0
X140.0Y-89.0
X140.0Y-105.0
X140.0Y-121.0
X140.2Y-100.4
X141.0Y-79.5
X141.0Y-95.5
X141.0Y-111.5
X141.0Y-127.5
X141.846Y-79.5
X142.5Y-95.5
X142.5Y-111.5
X142.5Y-114.5
X142.846Y-79.5
X143.25Y-127.0
X143.5Y-129.0
X147.0Y-76.5
X147.0Y-126.5
X152.25Y-132.0
X152.749Y-81.5
X153.0Y-72.5
X153.0Y-88.5
X153.0Y-104.5
X153.0Y-120.5
X154.7Y-81.6
X154.9Y-133.2
X157.251Y-80.405
X157.251Y-96.405
X157.251Y-97.595
X157.251Y-112.405
X157.251Y-113.595
X157.251Y-128.405
X157.251Y-129.595
X157.4Y-104.1
X157.8Y-117.1
X160.5Y-79.75
X160.5Y-95.75
X160.5Y-111.75
X160.5Y-127.5
X162.25Y-79.75
X162.25Y-95.75
X162.25Y-111.75
X162.25Y-127.5
X163.5Y-129.0
X172.0Y-76.5
X173.0Y-72.5
X173.0Y-88.5
X173.0Y-104.5
X173.0Y-120.5
X177.0Y-81.5
X177.251Y-80.405
X177.251Y-96.405
X177.251Y-97.595
X177.251Y-112.405
X177.251Y-113.595
X177.251Y-129.595
X180.1Y-125.1
X182.0Y-106.55
X182.0Y-131.5
X187.0Y-111.5
X187.0Y-121.5
X189.5Y-121.5
X191.0Y-76.75
X191.0Y-120.5
X191.5Y-119.5
X192.0Y-76.5
X192.0Y-106.55
X192.0Y-111.5
X194.1Y-80.7
X195.43Y-77.0
X197.0Y-111.5
X197.18Y-80.679
X201.0Y-121.75
X202.0Y-76.5
X207.0Y-106.55
X207.0Y-111.5
X207.0Y-116.5
X207.0Y-121.5
X207.0Y-126.5
T2
X125.7Y-96.9
X137.9Y-126.6
X139.6Y-134.5
X142.25Y-88.25
X142.25Y-104.25
X142.25Y-120.25
X145.846Y-76.746
X145.846Y-92.746
X145.846Y-108.746
X145.846Y-124.746
X146.1Y-86.5
X146.1Y-102.5
X146.1Y-118.5
X146.1Y-134.5
X154.0Y-86.5
X154.0Y-102.5
X154.0Y-118.5
X154.0Y-134.5
X157.25Y-76.75
X157.25Y-92.75
X157.25Y-108.75
X157.25Y-124.75
X159.6Y-86.5
X159.6Y-102.5
X159.6Y-118.5
X159.6Y-134.5
X166.1Y-86.5
X166.1Y-102.5
X166.1Y-118.5
X166.1Y-134.5
X174.0Y-86.5
X174.0Y-102.5
X174.0Y-118.5
X174.0Y-134.5
X177.25Y-76.75
X177.25Y-92.75
X177.25Y-108.75
X177.25Y-124.75
X179.7Y-81.1
X179.7Y-82.1
X179.7Y-83.1
X180.7Y-81.1
X180.7Y-82.1
X180.7Y-83.1
X182.3Y-129.05
X184.3Y-114.95
X185.0Y-130.0
X191.1Y-95.2
X191.1Y-96.2
X191.1Y-97.2
X192.1Y-95.2
X192.1Y-96.2
X192.1Y-97.2
X195.2Y-83.3
X195.2Y-84.3
X195.2Y-85.3
X196.2Y-83.3
X196.2Y-84.3
X196.2Y-85.3
X196.2Y-86.3
X197.0Y-121.5
X197.2Y-83.3
X197.2Y-84.3
X197.2Y-85.3
X198.2Y-83.3
X198.2Y-84.3
X198.2Y-85.3
X198.2Y-86.3
X208.9Y-97.6
X208.9Y-98.6
X208.9Y-99.6
X209.9Y-97.6
X209.9Y-98.6
X209.9Y-99.6
T4
X109.0Y-81.13
X109.0Y-83.67
X109.0Y-86.21
X109.0Y-88.75
X109.0Y-91.29
X109.0Y-93.83
X109.0Y-96.37
X109.0Y-98.91
X109.0Y-105.92
X109.0Y-108.46
X109.0Y-111.0
X109.0Y-113.54
X109.0Y-118.2
X109.0Y-120.74
X109.0Y-123.28
X109.0Y-125.82
X119.985Y-73.5
X122.525Y-73.5
X130.21Y-73.5
X132.75Y-73.5
X163.571Y-73.5
X163.571Y-89.5
X163.571Y-105.5
X163.571Y-121.5
X166.111Y-73.5
X166.111Y-89.5
X166.111Y-105.5
X166.111Y-121.5
X181.419Y-93.435
X181.419Y-95.975
X183.985Y-73.5
X186.525Y-73.5
X194.75Y-94.235
X194.75Y-96.775
X209.0Y-81.225
X209.0Y-83.765
X209.0Y-110.3
X209.0Y-112.84
X209.0Y-115.38
X209.0Y-117.92
X209.0Y-120.46
X209.0Y-123.0
X209.0Y-125.54
T5
X207.05Y-88.5
X207.05Y-92.0
T6
X137.0Y-98.5
X137.0Y-116.5
X181.25Y-89.5
X181.25Y-113.0
T7
X110.75Y-75.25
X110.75Y-131.75
X207.25Y-75.25
X207.25Y-131.75
T3
G00X191.86Y-73.002
M15
G01X191.86Y-74.499
M16
G05
G00X191.86Y-78.615
M15
G01X191.86Y-79.606
M16
G05
G00X200.5Y-73.002
M15
G01X200.5Y-74.499
M16
G05
G00X200.5Y-78.615
M15
G01X200.5Y-79.606
M16
G05
T0
M30
