%TF.GenerationSoftware,KiCad,Pcbnew,7.0.9*%
%TF.CreationDate,2024-02-07T13:17:43-05:00*%
%TF.ProjectId,fydp,66796470-2e6b-4696-9361-645f70636258,rev?*%
%TF.SameCoordinates,Original*%
%TF.FileFunction,Soldermask,Top*%
%TF.FilePolarity,Negative*%
%FSLAX46Y46*%
G04 Gerber Fmt 4.6, Leading zero omitted, Abs format (unit mm)*
G04 Created by KiCad (PCBNEW 7.0.9) date 2024-02-07 13:17:43*
%MOMM*%
%LPD*%
G01*
G04 APERTURE LIST*
G04 Aperture macros list*
%AMRoundRect*
0 Rectangle with rounded corners*
0 $1 Rounding radius*
0 $2 $3 $4 $5 $6 $7 $8 $9 X,Y pos of 4 corners*
0 Add a 4 corners polygon primitive as box body*
4,1,4,$2,$3,$4,$5,$6,$7,$8,$9,$2,$3,0*
0 Add four circle primitives for the rounded corners*
1,1,$1+$1,$2,$3*
1,1,$1+$1,$4,$5*
1,1,$1+$1,$6,$7*
1,1,$1+$1,$8,$9*
0 Add four rect primitives between the rounded corners*
20,1,$1+$1,$2,$3,$4,$5,0*
20,1,$1+$1,$4,$5,$6,$7,0*
20,1,$1+$1,$6,$7,$8,$9,0*
20,1,$1+$1,$8,$9,$2,$3,0*%
G04 Aperture macros list end*
%ADD10C,0.127000*%
%ADD11RoundRect,0.038000X0.279400X-0.990600X0.279400X0.990600X-0.279400X0.990600X-0.279400X-0.990600X0*%
%ADD12RoundRect,0.288000X-0.262500X-0.450000X0.262500X-0.450000X0.262500X0.450000X-0.262500X0.450000X0*%
%ADD13RoundRect,0.038000X0.850000X-0.850000X0.850000X0.850000X-0.850000X0.850000X-0.850000X-0.850000X0*%
%ADD14O,1.776000X1.776000*%
%ADD15RoundRect,0.288000X0.475000X-0.250000X0.475000X0.250000X-0.475000X0.250000X-0.475000X-0.250000X0*%
%ADD16RoundRect,0.288000X0.262500X0.450000X-0.262500X0.450000X-0.262500X-0.450000X0.262500X-0.450000X0*%
%ADD17RoundRect,0.288000X-0.250000X-0.475000X0.250000X-0.475000X0.250000X0.475000X-0.250000X0.475000X0*%
%ADD18RoundRect,0.288000X-0.450000X0.262500X-0.450000X-0.262500X0.450000X-0.262500X0.450000X0.262500X0*%
%ADD19RoundRect,0.288000X-0.475000X0.250000X-0.475000X-0.250000X0.475000X-0.250000X0.475000X0.250000X0*%
%ADD20RoundRect,0.188000X0.725000X0.150000X-0.725000X0.150000X-0.725000X-0.150000X0.725000X-0.150000X0*%
%ADD21RoundRect,0.288000X0.450000X-0.262500X0.450000X0.262500X-0.450000X0.262500X-0.450000X-0.262500X0*%
%ADD22RoundRect,0.038000X-0.500000X0.500000X-0.500000X-0.500000X0.500000X-0.500000X0.500000X0.500000X0*%
%ADD23RoundRect,0.038000X-0.850000X-0.850000X0.850000X-0.850000X0.850000X0.850000X-0.850000X0.850000X0*%
%ADD24RoundRect,0.038000X-0.500000X-0.500000X0.500000X-0.500000X0.500000X0.500000X-0.500000X0.500000X0*%
%ADD25RoundRect,0.038000X-0.635000X-0.279400X0.635000X-0.279400X0.635000X0.279400X-0.635000X0.279400X0*%
%ADD26C,2.717600*%
%ADD27RoundRect,0.038000X-0.200000X0.750000X-0.200000X-0.750000X0.200000X-0.750000X0.200000X0.750000X0*%
%ADD28RoundRect,0.256750X0.218750X0.381250X-0.218750X0.381250X-0.218750X-0.381250X0.218750X-0.381250X0*%
%ADD29RoundRect,0.038000X-0.750000X-0.200000X0.750000X-0.200000X0.750000X0.200000X-0.750000X0.200000X0*%
%ADD30RoundRect,0.288000X0.450000X-0.325000X0.450000X0.325000X-0.450000X0.325000X-0.450000X-0.325000X0*%
%ADD31RoundRect,0.288000X0.250000X0.475000X-0.250000X0.475000X-0.250000X-0.475000X0.250000X-0.475000X0*%
%ADD32C,2.676000*%
%ADD33C,4.476000*%
%ADD34RoundRect,0.263000X-0.225000X-0.375000X0.225000X-0.375000X0.225000X0.375000X-0.225000X0.375000X0*%
%ADD35RoundRect,0.038000X-0.850000X0.850000X-0.850000X-0.850000X0.850000X-0.850000X0.850000X0.850000X0*%
%ADD36RoundRect,0.038000X0.500000X0.500000X-0.500000X0.500000X-0.500000X-0.500000X0.500000X-0.500000X0*%
%ADD37RoundRect,0.175500X-0.137500X0.862500X-0.137500X-0.862500X0.137500X-0.862500X0.137500X0.862500X0*%
%ADD38RoundRect,0.038000X1.200000X-1.200000X1.200000X1.200000X-1.200000X1.200000X-1.200000X-1.200000X0*%
%ADD39C,2.476000*%
%ADD40RoundRect,0.113000X-0.662500X-0.075000X0.662500X-0.075000X0.662500X0.075000X-0.662500X0.075000X0*%
%ADD41RoundRect,0.113000X-0.075000X-0.662500X0.075000X-0.662500X0.075000X0.662500X-0.075000X0.662500X0*%
%ADD42RoundRect,0.038000X0.450000X-0.325000X0.450000X0.325000X-0.450000X0.325000X-0.450000X-0.325000X0*%
%ADD43RoundRect,0.038000X0.850000X0.850000X-0.850000X0.850000X-0.850000X-0.850000X0.850000X-0.850000X0*%
%ADD44RoundRect,0.263000X0.375000X-0.225000X0.375000X0.225000X-0.375000X0.225000X-0.375000X-0.225000X0*%
%ADD45O,1.244400X2.743000*%
%ADD46O,1.244400X2.235000*%
%ADD47RoundRect,0.038000X0.165100X0.381000X-0.165100X0.381000X-0.165100X-0.381000X0.165100X-0.381000X0*%
%ADD48RoundRect,0.038000X0.520700X0.381000X-0.520700X0.381000X-0.520700X-0.381000X0.520700X-0.381000X0*%
%ADD49RoundRect,0.288000X0.250000X0.250000X-0.250000X0.250000X-0.250000X-0.250000X0.250000X-0.250000X0*%
%ADD50RoundRect,0.038000X0.431800X0.774700X-0.431800X0.774700X-0.431800X-0.774700X0.431800X-0.774700X0*%
%ADD51RoundRect,0.038000X1.574800X0.774700X-1.574800X0.774700X-1.574800X-0.774700X1.574800X-0.774700X0*%
%ADD52RoundRect,0.288001X-0.624999X0.462499X-0.624999X-0.462499X0.624999X-0.462499X0.624999X0.462499X0*%
G04 APERTURE END LIST*
D10*
X120234742Y-118048634D02*
X120234742Y-117413634D01*
X120234742Y-117413634D02*
X120476647Y-117413634D01*
X120476647Y-117413634D02*
X120537123Y-117443872D01*
X120537123Y-117443872D02*
X120567361Y-117474110D01*
X120567361Y-117474110D02*
X120597599Y-117534586D01*
X120597599Y-117534586D02*
X120597599Y-117625300D01*
X120597599Y-117625300D02*
X120567361Y-117685776D01*
X120567361Y-117685776D02*
X120537123Y-117716015D01*
X120537123Y-117716015D02*
X120476647Y-117746253D01*
X120476647Y-117746253D02*
X120234742Y-117746253D01*
X121141885Y-118048634D02*
X121141885Y-117716015D01*
X121141885Y-117716015D02*
X121111647Y-117655538D01*
X121111647Y-117655538D02*
X121051171Y-117625300D01*
X121051171Y-117625300D02*
X120930218Y-117625300D01*
X120930218Y-117625300D02*
X120869742Y-117655538D01*
X121141885Y-118018396D02*
X121081409Y-118048634D01*
X121081409Y-118048634D02*
X120930218Y-118048634D01*
X120930218Y-118048634D02*
X120869742Y-118018396D01*
X120869742Y-118018396D02*
X120839504Y-117957919D01*
X120839504Y-117957919D02*
X120839504Y-117897443D01*
X120839504Y-117897443D02*
X120869742Y-117836967D01*
X120869742Y-117836967D02*
X120930218Y-117806729D01*
X120930218Y-117806729D02*
X121081409Y-117806729D01*
X121081409Y-117806729D02*
X121141885Y-117776491D01*
X121353552Y-117625300D02*
X121595456Y-117625300D01*
X121444266Y-117413634D02*
X121444266Y-117957919D01*
X121444266Y-117957919D02*
X121474504Y-118018396D01*
X121474504Y-118018396D02*
X121534980Y-118048634D01*
X121534980Y-118048634D02*
X121595456Y-118048634D01*
X121807123Y-118048634D02*
X121807123Y-117625300D01*
X121807123Y-117746253D02*
X121837361Y-117685776D01*
X121837361Y-117685776D02*
X121867599Y-117655538D01*
X121867599Y-117655538D02*
X121928075Y-117625300D01*
X121928075Y-117625300D02*
X121988552Y-117625300D01*
X122200218Y-118048634D02*
X122200218Y-117625300D01*
X122200218Y-117413634D02*
X122169980Y-117443872D01*
X122169980Y-117443872D02*
X122200218Y-117474110D01*
X122200218Y-117474110D02*
X122230456Y-117443872D01*
X122230456Y-117443872D02*
X122200218Y-117413634D01*
X122200218Y-117413634D02*
X122200218Y-117474110D01*
X122774742Y-118018396D02*
X122714266Y-118048634D01*
X122714266Y-118048634D02*
X122593313Y-118048634D01*
X122593313Y-118048634D02*
X122532837Y-118018396D01*
X122532837Y-118018396D02*
X122502599Y-117988157D01*
X122502599Y-117988157D02*
X122472361Y-117927681D01*
X122472361Y-117927681D02*
X122472361Y-117746253D01*
X122472361Y-117746253D02*
X122502599Y-117685776D01*
X122502599Y-117685776D02*
X122532837Y-117655538D01*
X122532837Y-117655538D02*
X122593313Y-117625300D01*
X122593313Y-117625300D02*
X122714266Y-117625300D01*
X122714266Y-117625300D02*
X122774742Y-117655538D01*
X123046885Y-118048634D02*
X123046885Y-117413634D01*
X123107361Y-117806729D02*
X123288790Y-118048634D01*
X123288790Y-117625300D02*
X123046885Y-117867205D01*
X124347124Y-118048634D02*
X124044743Y-118048634D01*
X124044743Y-118048634D02*
X124044743Y-117413634D01*
X124558791Y-118048634D02*
X124558791Y-117625300D01*
X124558791Y-117413634D02*
X124528553Y-117443872D01*
X124528553Y-117443872D02*
X124558791Y-117474110D01*
X124558791Y-117474110D02*
X124589029Y-117443872D01*
X124589029Y-117443872D02*
X124558791Y-117413634D01*
X124558791Y-117413634D02*
X124558791Y-117474110D01*
X120204504Y-118889555D02*
X120506885Y-118889555D01*
X120144028Y-119070984D02*
X120355694Y-118435984D01*
X120355694Y-118435984D02*
X120567361Y-119070984D01*
X120779028Y-118647650D02*
X120779028Y-119070984D01*
X120779028Y-118708126D02*
X120809266Y-118677888D01*
X120809266Y-118677888D02*
X120869742Y-118647650D01*
X120869742Y-118647650D02*
X120960457Y-118647650D01*
X120960457Y-118647650D02*
X121020933Y-118677888D01*
X121020933Y-118677888D02*
X121051171Y-118738365D01*
X121051171Y-118738365D02*
X121051171Y-119070984D01*
X121625695Y-118647650D02*
X121625695Y-119070984D01*
X121353552Y-118647650D02*
X121353552Y-118980269D01*
X121353552Y-118980269D02*
X121383790Y-119040746D01*
X121383790Y-119040746D02*
X121444266Y-119070984D01*
X121444266Y-119070984D02*
X121534981Y-119070984D01*
X121534981Y-119070984D02*
X121595457Y-119040746D01*
X121595457Y-119040746D02*
X121625695Y-119010507D01*
X121928076Y-118647650D02*
X121928076Y-119191936D01*
X121928076Y-119191936D02*
X121897838Y-119252412D01*
X121897838Y-119252412D02*
X121837362Y-119282650D01*
X121837362Y-119282650D02*
X121807124Y-119282650D01*
X121928076Y-118435984D02*
X121897838Y-118466222D01*
X121897838Y-118466222D02*
X121928076Y-118496460D01*
X121928076Y-118496460D02*
X121958314Y-118466222D01*
X121958314Y-118466222D02*
X121928076Y-118435984D01*
X121928076Y-118435984D02*
X121928076Y-118496460D01*
X122502600Y-119070984D02*
X122502600Y-118738365D01*
X122502600Y-118738365D02*
X122472362Y-118677888D01*
X122472362Y-118677888D02*
X122411886Y-118647650D01*
X122411886Y-118647650D02*
X122290933Y-118647650D01*
X122290933Y-118647650D02*
X122230457Y-118677888D01*
X122502600Y-119040746D02*
X122442124Y-119070984D01*
X122442124Y-119070984D02*
X122290933Y-119070984D01*
X122290933Y-119070984D02*
X122230457Y-119040746D01*
X122230457Y-119040746D02*
X122200219Y-118980269D01*
X122200219Y-118980269D02*
X122200219Y-118919793D01*
X122200219Y-118919793D02*
X122230457Y-118859317D01*
X122230457Y-118859317D02*
X122290933Y-118829079D01*
X122290933Y-118829079D02*
X122442124Y-118829079D01*
X122442124Y-118829079D02*
X122502600Y-118798841D01*
X122804981Y-118647650D02*
X122804981Y-119070984D01*
X122804981Y-118708126D02*
X122835219Y-118677888D01*
X122835219Y-118677888D02*
X122895695Y-118647650D01*
X122895695Y-118647650D02*
X122986410Y-118647650D01*
X122986410Y-118647650D02*
X123046886Y-118677888D01*
X123046886Y-118677888D02*
X123077124Y-118738365D01*
X123077124Y-118738365D02*
X123077124Y-119070984D01*
X123863315Y-119070984D02*
X123863315Y-118435984D01*
X123863315Y-118435984D02*
X124074982Y-118889555D01*
X124074982Y-118889555D02*
X124286648Y-118435984D01*
X124286648Y-118435984D02*
X124286648Y-119070984D01*
X124861172Y-119070984D02*
X124861172Y-118738365D01*
X124861172Y-118738365D02*
X124830934Y-118677888D01*
X124830934Y-118677888D02*
X124770458Y-118647650D01*
X124770458Y-118647650D02*
X124649505Y-118647650D01*
X124649505Y-118647650D02*
X124589029Y-118677888D01*
X124861172Y-119040746D02*
X124800696Y-119070984D01*
X124800696Y-119070984D02*
X124649505Y-119070984D01*
X124649505Y-119070984D02*
X124589029Y-119040746D01*
X124589029Y-119040746D02*
X124558791Y-118980269D01*
X124558791Y-118980269D02*
X124558791Y-118919793D01*
X124558791Y-118919793D02*
X124589029Y-118859317D01*
X124589029Y-118859317D02*
X124649505Y-118829079D01*
X124649505Y-118829079D02*
X124800696Y-118829079D01*
X124800696Y-118829079D02*
X124861172Y-118798841D01*
X125072839Y-118647650D02*
X125314743Y-118647650D01*
X125163553Y-118435984D02*
X125163553Y-118980269D01*
X125163553Y-118980269D02*
X125193791Y-119040746D01*
X125193791Y-119040746D02*
X125254267Y-119070984D01*
X125254267Y-119070984D02*
X125314743Y-119070984D01*
X125526410Y-119070984D02*
X125526410Y-118435984D01*
X125798553Y-119070984D02*
X125798553Y-118738365D01*
X125798553Y-118738365D02*
X125768315Y-118677888D01*
X125768315Y-118677888D02*
X125707839Y-118647650D01*
X125707839Y-118647650D02*
X125617124Y-118647650D01*
X125617124Y-118647650D02*
X125556648Y-118677888D01*
X125556648Y-118677888D02*
X125526410Y-118708126D01*
X126100934Y-119070984D02*
X126100934Y-118647650D01*
X126100934Y-118435984D02*
X126070696Y-118466222D01*
X126070696Y-118466222D02*
X126100934Y-118496460D01*
X126100934Y-118496460D02*
X126131172Y-118466222D01*
X126131172Y-118466222D02*
X126100934Y-118435984D01*
X126100934Y-118435984D02*
X126100934Y-118496460D01*
X126373077Y-119040746D02*
X126433553Y-119070984D01*
X126433553Y-119070984D02*
X126554505Y-119070984D01*
X126554505Y-119070984D02*
X126614982Y-119040746D01*
X126614982Y-119040746D02*
X126645220Y-118980269D01*
X126645220Y-118980269D02*
X126645220Y-118950031D01*
X126645220Y-118950031D02*
X126614982Y-118889555D01*
X126614982Y-118889555D02*
X126554505Y-118859317D01*
X126554505Y-118859317D02*
X126463791Y-118859317D01*
X126463791Y-118859317D02*
X126403315Y-118829079D01*
X126403315Y-118829079D02*
X126373077Y-118768603D01*
X126373077Y-118768603D02*
X126373077Y-118738365D01*
X126373077Y-118738365D02*
X126403315Y-118677888D01*
X126403315Y-118677888D02*
X126463791Y-118647650D01*
X126463791Y-118647650D02*
X126554505Y-118647650D01*
X126554505Y-118647650D02*
X126614982Y-118677888D01*
X127159268Y-119040746D02*
X127098792Y-119070984D01*
X127098792Y-119070984D02*
X126977839Y-119070984D01*
X126977839Y-119070984D02*
X126917363Y-119040746D01*
X126917363Y-119040746D02*
X126887125Y-118980269D01*
X126887125Y-118980269D02*
X126887125Y-118738365D01*
X126887125Y-118738365D02*
X126917363Y-118677888D01*
X126917363Y-118677888D02*
X126977839Y-118647650D01*
X126977839Y-118647650D02*
X127098792Y-118647650D01*
X127098792Y-118647650D02*
X127159268Y-118677888D01*
X127159268Y-118677888D02*
X127189506Y-118738365D01*
X127189506Y-118738365D02*
X127189506Y-118798841D01*
X127189506Y-118798841D02*
X126887125Y-118859317D01*
X127461649Y-119070984D02*
X127461649Y-118435984D01*
X127522125Y-118829079D02*
X127703554Y-119070984D01*
X127703554Y-118647650D02*
X127461649Y-118889555D01*
X128247840Y-119070984D02*
X128247840Y-118738365D01*
X128247840Y-118738365D02*
X128217602Y-118677888D01*
X128217602Y-118677888D02*
X128157126Y-118647650D01*
X128157126Y-118647650D02*
X128036173Y-118647650D01*
X128036173Y-118647650D02*
X127975697Y-118677888D01*
X128247840Y-119040746D02*
X128187364Y-119070984D01*
X128187364Y-119070984D02*
X128036173Y-119070984D01*
X128036173Y-119070984D02*
X127975697Y-119040746D01*
X127975697Y-119040746D02*
X127945459Y-118980269D01*
X127945459Y-118980269D02*
X127945459Y-118919793D01*
X127945459Y-118919793D02*
X127975697Y-118859317D01*
X127975697Y-118859317D02*
X128036173Y-118829079D01*
X128036173Y-118829079D02*
X128187364Y-118829079D01*
X128187364Y-118829079D02*
X128247840Y-118798841D01*
X128550221Y-119070984D02*
X128550221Y-118647650D01*
X128550221Y-118768603D02*
X128580459Y-118708126D01*
X128580459Y-118708126D02*
X128610697Y-118677888D01*
X128610697Y-118677888D02*
X128671173Y-118647650D01*
X128671173Y-118647650D02*
X128731650Y-118647650D01*
X129215459Y-119070984D02*
X129215459Y-118738365D01*
X129215459Y-118738365D02*
X129185221Y-118677888D01*
X129185221Y-118677888D02*
X129124745Y-118647650D01*
X129124745Y-118647650D02*
X129003792Y-118647650D01*
X129003792Y-118647650D02*
X128943316Y-118677888D01*
X129215459Y-119040746D02*
X129154983Y-119070984D01*
X129154983Y-119070984D02*
X129003792Y-119070984D01*
X129003792Y-119070984D02*
X128943316Y-119040746D01*
X128943316Y-119040746D02*
X128913078Y-118980269D01*
X128913078Y-118980269D02*
X128913078Y-118919793D01*
X128913078Y-118919793D02*
X128943316Y-118859317D01*
X128943316Y-118859317D02*
X129003792Y-118829079D01*
X129003792Y-118829079D02*
X129154983Y-118829079D01*
X129154983Y-118829079D02*
X129215459Y-118798841D01*
X129517840Y-118647650D02*
X129517840Y-119070984D01*
X129517840Y-118708126D02*
X129548078Y-118677888D01*
X129548078Y-118677888D02*
X129608554Y-118647650D01*
X129608554Y-118647650D02*
X129699269Y-118647650D01*
X129699269Y-118647650D02*
X129759745Y-118677888D01*
X129759745Y-118677888D02*
X129789983Y-118738365D01*
X129789983Y-118738365D02*
X129789983Y-119070984D01*
X120355694Y-119790953D02*
X120355694Y-120093334D01*
X120144028Y-119458334D02*
X120355694Y-119790953D01*
X120355694Y-119790953D02*
X120567361Y-119458334D01*
X120779028Y-120093334D02*
X120779028Y-119670000D01*
X120779028Y-119458334D02*
X120748790Y-119488572D01*
X120748790Y-119488572D02*
X120779028Y-119518810D01*
X120779028Y-119518810D02*
X120809266Y-119488572D01*
X120809266Y-119488572D02*
X120779028Y-119458334D01*
X120779028Y-119458334D02*
X120779028Y-119518810D01*
X121081409Y-120093334D02*
X121081409Y-119458334D01*
X121353552Y-120093334D02*
X121353552Y-119760715D01*
X121353552Y-119760715D02*
X121323314Y-119700238D01*
X121323314Y-119700238D02*
X121262838Y-119670000D01*
X121262838Y-119670000D02*
X121172123Y-119670000D01*
X121172123Y-119670000D02*
X121111647Y-119700238D01*
X121111647Y-119700238D02*
X121081409Y-119730476D01*
X121746647Y-120093334D02*
X121686171Y-120063096D01*
X121686171Y-120063096D02*
X121655933Y-120032857D01*
X121655933Y-120032857D02*
X121625695Y-119972381D01*
X121625695Y-119972381D02*
X121625695Y-119790953D01*
X121625695Y-119790953D02*
X121655933Y-119730476D01*
X121655933Y-119730476D02*
X121686171Y-119700238D01*
X121686171Y-119700238D02*
X121746647Y-119670000D01*
X121746647Y-119670000D02*
X121837362Y-119670000D01*
X121837362Y-119670000D02*
X121897838Y-119700238D01*
X121897838Y-119700238D02*
X121928076Y-119730476D01*
X121928076Y-119730476D02*
X121958314Y-119790953D01*
X121958314Y-119790953D02*
X121958314Y-119972381D01*
X121958314Y-119972381D02*
X121928076Y-120032857D01*
X121928076Y-120032857D02*
X121897838Y-120063096D01*
X121897838Y-120063096D02*
X121837362Y-120093334D01*
X121837362Y-120093334D02*
X121746647Y-120093334D01*
X122230457Y-119670000D02*
X122230457Y-120093334D01*
X122230457Y-119730476D02*
X122260695Y-119700238D01*
X122260695Y-119700238D02*
X122321171Y-119670000D01*
X122321171Y-119670000D02*
X122411886Y-119670000D01*
X122411886Y-119670000D02*
X122472362Y-119700238D01*
X122472362Y-119700238D02*
X122502600Y-119760715D01*
X122502600Y-119760715D02*
X122502600Y-120093334D01*
X123077124Y-119670000D02*
X123077124Y-120184048D01*
X123077124Y-120184048D02*
X123046886Y-120244524D01*
X123046886Y-120244524D02*
X123016648Y-120274762D01*
X123016648Y-120274762D02*
X122956171Y-120305000D01*
X122956171Y-120305000D02*
X122865457Y-120305000D01*
X122865457Y-120305000D02*
X122804981Y-120274762D01*
X123077124Y-120063096D02*
X123016648Y-120093334D01*
X123016648Y-120093334D02*
X122895695Y-120093334D01*
X122895695Y-120093334D02*
X122835219Y-120063096D01*
X122835219Y-120063096D02*
X122804981Y-120032857D01*
X122804981Y-120032857D02*
X122774743Y-119972381D01*
X122774743Y-119972381D02*
X122774743Y-119790953D01*
X122774743Y-119790953D02*
X122804981Y-119730476D01*
X122804981Y-119730476D02*
X122835219Y-119700238D01*
X122835219Y-119700238D02*
X122895695Y-119670000D01*
X122895695Y-119670000D02*
X123016648Y-119670000D01*
X123016648Y-119670000D02*
X123077124Y-119700238D01*
X124165696Y-120093334D02*
X123863315Y-120093334D01*
X123863315Y-120093334D02*
X123863315Y-119458334D01*
X124377363Y-120093334D02*
X124377363Y-119670000D01*
X124377363Y-119458334D02*
X124347125Y-119488572D01*
X124347125Y-119488572D02*
X124377363Y-119518810D01*
X124377363Y-119518810D02*
X124407601Y-119488572D01*
X124407601Y-119488572D02*
X124377363Y-119458334D01*
X124377363Y-119458334D02*
X124377363Y-119518810D01*
X124951887Y-119670000D02*
X124951887Y-120093334D01*
X124679744Y-119670000D02*
X124679744Y-120002619D01*
X124679744Y-120002619D02*
X124709982Y-120063096D01*
X124709982Y-120063096D02*
X124770458Y-120093334D01*
X124770458Y-120093334D02*
X124861173Y-120093334D01*
X124861173Y-120093334D02*
X124921649Y-120063096D01*
X124921649Y-120063096D02*
X124951887Y-120032857D01*
X120416171Y-120480684D02*
X120416171Y-120934255D01*
X120416171Y-120934255D02*
X120385932Y-121024969D01*
X120385932Y-121024969D02*
X120325456Y-121085446D01*
X120325456Y-121085446D02*
X120234742Y-121115684D01*
X120234742Y-121115684D02*
X120174266Y-121115684D01*
X120809266Y-121115684D02*
X120748790Y-121085446D01*
X120748790Y-121085446D02*
X120718552Y-121055207D01*
X120718552Y-121055207D02*
X120688314Y-120994731D01*
X120688314Y-120994731D02*
X120688314Y-120813303D01*
X120688314Y-120813303D02*
X120718552Y-120752826D01*
X120718552Y-120752826D02*
X120748790Y-120722588D01*
X120748790Y-120722588D02*
X120809266Y-120692350D01*
X120809266Y-120692350D02*
X120899981Y-120692350D01*
X120899981Y-120692350D02*
X120960457Y-120722588D01*
X120960457Y-120722588D02*
X120990695Y-120752826D01*
X120990695Y-120752826D02*
X121020933Y-120813303D01*
X121020933Y-120813303D02*
X121020933Y-120994731D01*
X121020933Y-120994731D02*
X120990695Y-121055207D01*
X120990695Y-121055207D02*
X120960457Y-121085446D01*
X120960457Y-121085446D02*
X120899981Y-121115684D01*
X120899981Y-121115684D02*
X120809266Y-121115684D01*
X121293076Y-121115684D02*
X121293076Y-120692350D01*
X121293076Y-120813303D02*
X121323314Y-120752826D01*
X121323314Y-120752826D02*
X121353552Y-120722588D01*
X121353552Y-120722588D02*
X121414028Y-120692350D01*
X121414028Y-120692350D02*
X121474505Y-120692350D01*
X121958314Y-121115684D02*
X121958314Y-120480684D01*
X121958314Y-121085446D02*
X121897838Y-121115684D01*
X121897838Y-121115684D02*
X121776885Y-121115684D01*
X121776885Y-121115684D02*
X121716409Y-121085446D01*
X121716409Y-121085446D02*
X121686171Y-121055207D01*
X121686171Y-121055207D02*
X121655933Y-120994731D01*
X121655933Y-120994731D02*
X121655933Y-120813303D01*
X121655933Y-120813303D02*
X121686171Y-120752826D01*
X121686171Y-120752826D02*
X121716409Y-120722588D01*
X121716409Y-120722588D02*
X121776885Y-120692350D01*
X121776885Y-120692350D02*
X121897838Y-120692350D01*
X121897838Y-120692350D02*
X121958314Y-120722588D01*
X122532838Y-121115684D02*
X122532838Y-120783065D01*
X122532838Y-120783065D02*
X122502600Y-120722588D01*
X122502600Y-120722588D02*
X122442124Y-120692350D01*
X122442124Y-120692350D02*
X122321171Y-120692350D01*
X122321171Y-120692350D02*
X122260695Y-120722588D01*
X122532838Y-121085446D02*
X122472362Y-121115684D01*
X122472362Y-121115684D02*
X122321171Y-121115684D01*
X122321171Y-121115684D02*
X122260695Y-121085446D01*
X122260695Y-121085446D02*
X122230457Y-121024969D01*
X122230457Y-121024969D02*
X122230457Y-120964493D01*
X122230457Y-120964493D02*
X122260695Y-120904017D01*
X122260695Y-120904017D02*
X122321171Y-120873779D01*
X122321171Y-120873779D02*
X122472362Y-120873779D01*
X122472362Y-120873779D02*
X122532838Y-120843541D01*
X122835219Y-120692350D02*
X122835219Y-121115684D01*
X122835219Y-120752826D02*
X122865457Y-120722588D01*
X122865457Y-120722588D02*
X122925933Y-120692350D01*
X122925933Y-120692350D02*
X123016648Y-120692350D01*
X123016648Y-120692350D02*
X123077124Y-120722588D01*
X123077124Y-120722588D02*
X123107362Y-120783065D01*
X123107362Y-120783065D02*
X123107362Y-121115684D01*
X124165696Y-121115684D02*
X124165696Y-120480684D01*
X124165696Y-121085446D02*
X124105220Y-121115684D01*
X124105220Y-121115684D02*
X123984267Y-121115684D01*
X123984267Y-121115684D02*
X123923791Y-121085446D01*
X123923791Y-121085446D02*
X123893553Y-121055207D01*
X123893553Y-121055207D02*
X123863315Y-120994731D01*
X123863315Y-120994731D02*
X123863315Y-120813303D01*
X123863315Y-120813303D02*
X123893553Y-120752826D01*
X123893553Y-120752826D02*
X123923791Y-120722588D01*
X123923791Y-120722588D02*
X123984267Y-120692350D01*
X123984267Y-120692350D02*
X124105220Y-120692350D01*
X124105220Y-120692350D02*
X124165696Y-120722588D01*
X124709982Y-121085446D02*
X124649506Y-121115684D01*
X124649506Y-121115684D02*
X124528553Y-121115684D01*
X124528553Y-121115684D02*
X124468077Y-121085446D01*
X124468077Y-121085446D02*
X124437839Y-121024969D01*
X124437839Y-121024969D02*
X124437839Y-120783065D01*
X124437839Y-120783065D02*
X124468077Y-120722588D01*
X124468077Y-120722588D02*
X124528553Y-120692350D01*
X124528553Y-120692350D02*
X124649506Y-120692350D01*
X124649506Y-120692350D02*
X124709982Y-120722588D01*
X124709982Y-120722588D02*
X124740220Y-120783065D01*
X124740220Y-120783065D02*
X124740220Y-120843541D01*
X124740220Y-120843541D02*
X124437839Y-120904017D01*
X125465935Y-121085446D02*
X125556649Y-121115684D01*
X125556649Y-121115684D02*
X125707840Y-121115684D01*
X125707840Y-121115684D02*
X125768316Y-121085446D01*
X125768316Y-121085446D02*
X125798554Y-121055207D01*
X125798554Y-121055207D02*
X125828792Y-120994731D01*
X125828792Y-120994731D02*
X125828792Y-120934255D01*
X125828792Y-120934255D02*
X125798554Y-120873779D01*
X125798554Y-120873779D02*
X125768316Y-120843541D01*
X125768316Y-120843541D02*
X125707840Y-120813303D01*
X125707840Y-120813303D02*
X125586887Y-120783065D01*
X125586887Y-120783065D02*
X125526411Y-120752826D01*
X125526411Y-120752826D02*
X125496173Y-120722588D01*
X125496173Y-120722588D02*
X125465935Y-120662112D01*
X125465935Y-120662112D02*
X125465935Y-120601636D01*
X125465935Y-120601636D02*
X125496173Y-120541160D01*
X125496173Y-120541160D02*
X125526411Y-120510922D01*
X125526411Y-120510922D02*
X125586887Y-120480684D01*
X125586887Y-120480684D02*
X125738078Y-120480684D01*
X125738078Y-120480684D02*
X125828792Y-120510922D01*
X126191649Y-121115684D02*
X126131173Y-121085446D01*
X126131173Y-121085446D02*
X126100935Y-121055207D01*
X126100935Y-121055207D02*
X126070697Y-120994731D01*
X126070697Y-120994731D02*
X126070697Y-120813303D01*
X126070697Y-120813303D02*
X126100935Y-120752826D01*
X126100935Y-120752826D02*
X126131173Y-120722588D01*
X126131173Y-120722588D02*
X126191649Y-120692350D01*
X126191649Y-120692350D02*
X126282364Y-120692350D01*
X126282364Y-120692350D02*
X126342840Y-120722588D01*
X126342840Y-120722588D02*
X126373078Y-120752826D01*
X126373078Y-120752826D02*
X126403316Y-120813303D01*
X126403316Y-120813303D02*
X126403316Y-120994731D01*
X126403316Y-120994731D02*
X126373078Y-121055207D01*
X126373078Y-121055207D02*
X126342840Y-121085446D01*
X126342840Y-121085446D02*
X126282364Y-121115684D01*
X126282364Y-121115684D02*
X126191649Y-121115684D01*
X126947602Y-120692350D02*
X126947602Y-121115684D01*
X126675459Y-120692350D02*
X126675459Y-121024969D01*
X126675459Y-121024969D02*
X126705697Y-121085446D01*
X126705697Y-121085446D02*
X126766173Y-121115684D01*
X126766173Y-121115684D02*
X126856888Y-121115684D01*
X126856888Y-121115684D02*
X126917364Y-121085446D01*
X126917364Y-121085446D02*
X126947602Y-121055207D01*
X127189507Y-120692350D02*
X127522126Y-120692350D01*
X127522126Y-120692350D02*
X127189507Y-121115684D01*
X127189507Y-121115684D02*
X127522126Y-121115684D01*
X128036174Y-121115684D02*
X128036174Y-120783065D01*
X128036174Y-120783065D02*
X128005936Y-120722588D01*
X128005936Y-120722588D02*
X127945460Y-120692350D01*
X127945460Y-120692350D02*
X127824507Y-120692350D01*
X127824507Y-120692350D02*
X127764031Y-120722588D01*
X128036174Y-121085446D02*
X127975698Y-121115684D01*
X127975698Y-121115684D02*
X127824507Y-121115684D01*
X127824507Y-121115684D02*
X127764031Y-121085446D01*
X127764031Y-121085446D02*
X127733793Y-121024969D01*
X127733793Y-121024969D02*
X127733793Y-120964493D01*
X127733793Y-120964493D02*
X127764031Y-120904017D01*
X127764031Y-120904017D02*
X127824507Y-120873779D01*
X127824507Y-120873779D02*
X127975698Y-120873779D01*
X127975698Y-120873779D02*
X128036174Y-120843541D01*
X191454504Y-109495746D02*
X191545218Y-109525984D01*
X191545218Y-109525984D02*
X191696409Y-109525984D01*
X191696409Y-109525984D02*
X191756885Y-109495746D01*
X191756885Y-109495746D02*
X191787123Y-109465507D01*
X191787123Y-109465507D02*
X191817361Y-109405031D01*
X191817361Y-109405031D02*
X191817361Y-109344555D01*
X191817361Y-109344555D02*
X191787123Y-109284079D01*
X191787123Y-109284079D02*
X191756885Y-109253841D01*
X191756885Y-109253841D02*
X191696409Y-109223603D01*
X191696409Y-109223603D02*
X191575456Y-109193365D01*
X191575456Y-109193365D02*
X191514980Y-109163126D01*
X191514980Y-109163126D02*
X191484742Y-109132888D01*
X191484742Y-109132888D02*
X191454504Y-109072412D01*
X191454504Y-109072412D02*
X191454504Y-109011936D01*
X191454504Y-109011936D02*
X191484742Y-108951460D01*
X191484742Y-108951460D02*
X191514980Y-108921222D01*
X191514980Y-108921222D02*
X191575456Y-108890984D01*
X191575456Y-108890984D02*
X191726647Y-108890984D01*
X191726647Y-108890984D02*
X191817361Y-108921222D01*
X192361647Y-109495746D02*
X192301171Y-109525984D01*
X192301171Y-109525984D02*
X192180218Y-109525984D01*
X192180218Y-109525984D02*
X192119742Y-109495746D01*
X192119742Y-109495746D02*
X192089504Y-109465507D01*
X192089504Y-109465507D02*
X192059266Y-109405031D01*
X192059266Y-109405031D02*
X192059266Y-109223603D01*
X192059266Y-109223603D02*
X192089504Y-109163126D01*
X192089504Y-109163126D02*
X192119742Y-109132888D01*
X192119742Y-109132888D02*
X192180218Y-109102650D01*
X192180218Y-109102650D02*
X192301171Y-109102650D01*
X192301171Y-109102650D02*
X192361647Y-109132888D01*
X192633790Y-109525984D02*
X192633790Y-108890984D01*
X192905933Y-109525984D02*
X192905933Y-109193365D01*
X192905933Y-109193365D02*
X192875695Y-109132888D01*
X192875695Y-109132888D02*
X192815219Y-109102650D01*
X192815219Y-109102650D02*
X192724504Y-109102650D01*
X192724504Y-109102650D02*
X192664028Y-109132888D01*
X192664028Y-109132888D02*
X192633790Y-109163126D01*
X193450219Y-109495746D02*
X193389743Y-109525984D01*
X193389743Y-109525984D02*
X193268790Y-109525984D01*
X193268790Y-109525984D02*
X193208314Y-109495746D01*
X193208314Y-109495746D02*
X193178076Y-109435269D01*
X193178076Y-109435269D02*
X193178076Y-109193365D01*
X193178076Y-109193365D02*
X193208314Y-109132888D01*
X193208314Y-109132888D02*
X193268790Y-109102650D01*
X193268790Y-109102650D02*
X193389743Y-109102650D01*
X193389743Y-109102650D02*
X193450219Y-109132888D01*
X193450219Y-109132888D02*
X193480457Y-109193365D01*
X193480457Y-109193365D02*
X193480457Y-109253841D01*
X193480457Y-109253841D02*
X193178076Y-109314317D01*
X193752600Y-109525984D02*
X193752600Y-109102650D01*
X193752600Y-109163126D02*
X193782838Y-109132888D01*
X193782838Y-109132888D02*
X193843314Y-109102650D01*
X193843314Y-109102650D02*
X193934029Y-109102650D01*
X193934029Y-109102650D02*
X193994505Y-109132888D01*
X193994505Y-109132888D02*
X194024743Y-109193365D01*
X194024743Y-109193365D02*
X194024743Y-109525984D01*
X194024743Y-109193365D02*
X194054981Y-109132888D01*
X194054981Y-109132888D02*
X194115457Y-109102650D01*
X194115457Y-109102650D02*
X194206171Y-109102650D01*
X194206171Y-109102650D02*
X194266648Y-109132888D01*
X194266648Y-109132888D02*
X194296886Y-109193365D01*
X194296886Y-109193365D02*
X194296886Y-109525984D01*
X194871410Y-109525984D02*
X194871410Y-109193365D01*
X194871410Y-109193365D02*
X194841172Y-109132888D01*
X194841172Y-109132888D02*
X194780696Y-109102650D01*
X194780696Y-109102650D02*
X194659743Y-109102650D01*
X194659743Y-109102650D02*
X194599267Y-109132888D01*
X194871410Y-109495746D02*
X194810934Y-109525984D01*
X194810934Y-109525984D02*
X194659743Y-109525984D01*
X194659743Y-109525984D02*
X194599267Y-109495746D01*
X194599267Y-109495746D02*
X194569029Y-109435269D01*
X194569029Y-109435269D02*
X194569029Y-109374793D01*
X194569029Y-109374793D02*
X194599267Y-109314317D01*
X194599267Y-109314317D02*
X194659743Y-109284079D01*
X194659743Y-109284079D02*
X194810934Y-109284079D01*
X194810934Y-109284079D02*
X194871410Y-109253841D01*
X195083077Y-109102650D02*
X195324981Y-109102650D01*
X195173791Y-108890984D02*
X195173791Y-109435269D01*
X195173791Y-109435269D02*
X195204029Y-109495746D01*
X195204029Y-109495746D02*
X195264505Y-109525984D01*
X195264505Y-109525984D02*
X195324981Y-109525984D01*
X195536648Y-109525984D02*
X195536648Y-109102650D01*
X195536648Y-108890984D02*
X195506410Y-108921222D01*
X195506410Y-108921222D02*
X195536648Y-108951460D01*
X195536648Y-108951460D02*
X195566886Y-108921222D01*
X195566886Y-108921222D02*
X195536648Y-108890984D01*
X195536648Y-108890984D02*
X195536648Y-108951460D01*
X196111172Y-109495746D02*
X196050696Y-109525984D01*
X196050696Y-109525984D02*
X195929743Y-109525984D01*
X195929743Y-109525984D02*
X195869267Y-109495746D01*
X195869267Y-109495746D02*
X195839029Y-109465507D01*
X195839029Y-109465507D02*
X195808791Y-109405031D01*
X195808791Y-109405031D02*
X195808791Y-109223603D01*
X195808791Y-109223603D02*
X195839029Y-109163126D01*
X195839029Y-109163126D02*
X195869267Y-109132888D01*
X195869267Y-109132888D02*
X195929743Y-109102650D01*
X195929743Y-109102650D02*
X196050696Y-109102650D01*
X196050696Y-109102650D02*
X196111172Y-109132888D01*
X196867125Y-109525984D02*
X196867125Y-108890984D01*
X196867125Y-109132888D02*
X196927601Y-109102650D01*
X196927601Y-109102650D02*
X197048554Y-109102650D01*
X197048554Y-109102650D02*
X197109030Y-109132888D01*
X197109030Y-109132888D02*
X197139268Y-109163126D01*
X197139268Y-109163126D02*
X197169506Y-109223603D01*
X197169506Y-109223603D02*
X197169506Y-109405031D01*
X197169506Y-109405031D02*
X197139268Y-109465507D01*
X197139268Y-109465507D02*
X197109030Y-109495746D01*
X197109030Y-109495746D02*
X197048554Y-109525984D01*
X197048554Y-109525984D02*
X196927601Y-109525984D01*
X196927601Y-109525984D02*
X196867125Y-109495746D01*
X197381173Y-109102650D02*
X197532363Y-109525984D01*
X197683554Y-109102650D02*
X197532363Y-109525984D01*
X197532363Y-109525984D02*
X197471887Y-109677174D01*
X197471887Y-109677174D02*
X197441649Y-109707412D01*
X197441649Y-109707412D02*
X197381173Y-109737650D01*
X198409269Y-109525984D02*
X198409269Y-108890984D01*
X198409269Y-108890984D02*
X198620936Y-109344555D01*
X198620936Y-109344555D02*
X198832602Y-108890984D01*
X198832602Y-108890984D02*
X198832602Y-109525984D01*
X199407126Y-109525984D02*
X199407126Y-109193365D01*
X199407126Y-109193365D02*
X199376888Y-109132888D01*
X199376888Y-109132888D02*
X199316412Y-109102650D01*
X199316412Y-109102650D02*
X199195459Y-109102650D01*
X199195459Y-109102650D02*
X199134983Y-109132888D01*
X199407126Y-109495746D02*
X199346650Y-109525984D01*
X199346650Y-109525984D02*
X199195459Y-109525984D01*
X199195459Y-109525984D02*
X199134983Y-109495746D01*
X199134983Y-109495746D02*
X199104745Y-109435269D01*
X199104745Y-109435269D02*
X199104745Y-109374793D01*
X199104745Y-109374793D02*
X199134983Y-109314317D01*
X199134983Y-109314317D02*
X199195459Y-109284079D01*
X199195459Y-109284079D02*
X199346650Y-109284079D01*
X199346650Y-109284079D02*
X199407126Y-109253841D01*
X199649031Y-109525984D02*
X199981650Y-109102650D01*
X199649031Y-109102650D02*
X199981650Y-109525984D01*
X200646889Y-108890984D02*
X201070222Y-108890984D01*
X201070222Y-108890984D02*
X200646889Y-109525984D01*
X200646889Y-109525984D02*
X201070222Y-109525984D01*
X201312127Y-109525984D02*
X201312127Y-108890984D01*
X201584270Y-109525984D02*
X201584270Y-109193365D01*
X201584270Y-109193365D02*
X201554032Y-109132888D01*
X201554032Y-109132888D02*
X201493556Y-109102650D01*
X201493556Y-109102650D02*
X201402841Y-109102650D01*
X201402841Y-109102650D02*
X201342365Y-109132888D01*
X201342365Y-109132888D02*
X201312127Y-109163126D01*
X201977365Y-109525984D02*
X201916889Y-109495746D01*
X201916889Y-109495746D02*
X201886651Y-109465507D01*
X201886651Y-109465507D02*
X201856413Y-109405031D01*
X201856413Y-109405031D02*
X201856413Y-109223603D01*
X201856413Y-109223603D02*
X201886651Y-109163126D01*
X201886651Y-109163126D02*
X201916889Y-109132888D01*
X201916889Y-109132888D02*
X201977365Y-109102650D01*
X201977365Y-109102650D02*
X202068080Y-109102650D01*
X202068080Y-109102650D02*
X202128556Y-109132888D01*
X202128556Y-109132888D02*
X202158794Y-109163126D01*
X202158794Y-109163126D02*
X202189032Y-109223603D01*
X202189032Y-109223603D02*
X202189032Y-109405031D01*
X202189032Y-109405031D02*
X202158794Y-109465507D01*
X202158794Y-109465507D02*
X202128556Y-109495746D01*
X202128556Y-109495746D02*
X202068080Y-109525984D01*
X202068080Y-109525984D02*
X201977365Y-109525984D01*
X202733318Y-109102650D02*
X202733318Y-109525984D01*
X202461175Y-109102650D02*
X202461175Y-109435269D01*
X202461175Y-109435269D02*
X202491413Y-109495746D01*
X202491413Y-109495746D02*
X202551889Y-109525984D01*
X202551889Y-109525984D02*
X202642604Y-109525984D01*
X202642604Y-109525984D02*
X202703080Y-109495746D01*
X202703080Y-109495746D02*
X202733318Y-109465507D01*
X191787123Y-110548334D02*
X191484742Y-110548334D01*
X191484742Y-110548334D02*
X191484742Y-109913334D01*
X192270933Y-110548334D02*
X192270933Y-110215715D01*
X192270933Y-110215715D02*
X192240695Y-110155238D01*
X192240695Y-110155238D02*
X192180219Y-110125000D01*
X192180219Y-110125000D02*
X192059266Y-110125000D01*
X192059266Y-110125000D02*
X191998790Y-110155238D01*
X192270933Y-110518096D02*
X192210457Y-110548334D01*
X192210457Y-110548334D02*
X192059266Y-110548334D01*
X192059266Y-110548334D02*
X191998790Y-110518096D01*
X191998790Y-110518096D02*
X191968552Y-110457619D01*
X191968552Y-110457619D02*
X191968552Y-110397143D01*
X191968552Y-110397143D02*
X191998790Y-110336667D01*
X191998790Y-110336667D02*
X192059266Y-110306429D01*
X192059266Y-110306429D02*
X192210457Y-110306429D01*
X192210457Y-110306429D02*
X192270933Y-110276191D01*
X192512838Y-110125000D02*
X192664028Y-110548334D01*
X192815219Y-110125000D02*
X192664028Y-110548334D01*
X192664028Y-110548334D02*
X192603552Y-110699524D01*
X192603552Y-110699524D02*
X192573314Y-110729762D01*
X192573314Y-110729762D02*
X192512838Y-110760000D01*
X193147838Y-110548334D02*
X193087362Y-110518096D01*
X193087362Y-110518096D02*
X193057124Y-110487857D01*
X193057124Y-110487857D02*
X193026886Y-110427381D01*
X193026886Y-110427381D02*
X193026886Y-110245953D01*
X193026886Y-110245953D02*
X193057124Y-110185476D01*
X193057124Y-110185476D02*
X193087362Y-110155238D01*
X193087362Y-110155238D02*
X193147838Y-110125000D01*
X193147838Y-110125000D02*
X193238553Y-110125000D01*
X193238553Y-110125000D02*
X193299029Y-110155238D01*
X193299029Y-110155238D02*
X193329267Y-110185476D01*
X193329267Y-110185476D02*
X193359505Y-110245953D01*
X193359505Y-110245953D02*
X193359505Y-110427381D01*
X193359505Y-110427381D02*
X193329267Y-110487857D01*
X193329267Y-110487857D02*
X193299029Y-110518096D01*
X193299029Y-110518096D02*
X193238553Y-110548334D01*
X193238553Y-110548334D02*
X193147838Y-110548334D01*
X193903791Y-110125000D02*
X193903791Y-110548334D01*
X193631648Y-110125000D02*
X193631648Y-110457619D01*
X193631648Y-110457619D02*
X193661886Y-110518096D01*
X193661886Y-110518096D02*
X193722362Y-110548334D01*
X193722362Y-110548334D02*
X193813077Y-110548334D01*
X193813077Y-110548334D02*
X193873553Y-110518096D01*
X193873553Y-110518096D02*
X193903791Y-110487857D01*
X194115458Y-110125000D02*
X194357362Y-110125000D01*
X194206172Y-109913334D02*
X194206172Y-110457619D01*
X194206172Y-110457619D02*
X194236410Y-110518096D01*
X194236410Y-110518096D02*
X194296886Y-110548334D01*
X194296886Y-110548334D02*
X194357362Y-110548334D01*
X195052839Y-110548334D02*
X195052839Y-109913334D01*
X195052839Y-110155238D02*
X195113315Y-110125000D01*
X195113315Y-110125000D02*
X195234268Y-110125000D01*
X195234268Y-110125000D02*
X195294744Y-110155238D01*
X195294744Y-110155238D02*
X195324982Y-110185476D01*
X195324982Y-110185476D02*
X195355220Y-110245953D01*
X195355220Y-110245953D02*
X195355220Y-110427381D01*
X195355220Y-110427381D02*
X195324982Y-110487857D01*
X195324982Y-110487857D02*
X195294744Y-110518096D01*
X195294744Y-110518096D02*
X195234268Y-110548334D01*
X195234268Y-110548334D02*
X195113315Y-110548334D01*
X195113315Y-110548334D02*
X195052839Y-110518096D01*
X195566887Y-110125000D02*
X195718077Y-110548334D01*
X195869268Y-110125000D02*
X195718077Y-110548334D01*
X195718077Y-110548334D02*
X195657601Y-110699524D01*
X195657601Y-110699524D02*
X195627363Y-110729762D01*
X195627363Y-110729762D02*
X195566887Y-110760000D01*
X196594983Y-110548334D02*
X196594983Y-109913334D01*
X196594983Y-109913334D02*
X196806650Y-110366905D01*
X196806650Y-110366905D02*
X197018316Y-109913334D01*
X197018316Y-109913334D02*
X197018316Y-110548334D01*
X197320697Y-110548334D02*
X197320697Y-110125000D01*
X197320697Y-109913334D02*
X197290459Y-109943572D01*
X197290459Y-109943572D02*
X197320697Y-109973810D01*
X197320697Y-109973810D02*
X197350935Y-109943572D01*
X197350935Y-109943572D02*
X197320697Y-109913334D01*
X197320697Y-109913334D02*
X197320697Y-109973810D01*
X197623078Y-110125000D02*
X197623078Y-110548334D01*
X197623078Y-110185476D02*
X197653316Y-110155238D01*
X197653316Y-110155238D02*
X197713792Y-110125000D01*
X197713792Y-110125000D02*
X197804507Y-110125000D01*
X197804507Y-110125000D02*
X197864983Y-110155238D01*
X197864983Y-110155238D02*
X197895221Y-110215715D01*
X197895221Y-110215715D02*
X197895221Y-110548334D01*
X198469745Y-110125000D02*
X198469745Y-110639048D01*
X198469745Y-110639048D02*
X198439507Y-110699524D01*
X198439507Y-110699524D02*
X198409269Y-110729762D01*
X198409269Y-110729762D02*
X198348792Y-110760000D01*
X198348792Y-110760000D02*
X198258078Y-110760000D01*
X198258078Y-110760000D02*
X198197602Y-110729762D01*
X198469745Y-110518096D02*
X198409269Y-110548334D01*
X198409269Y-110548334D02*
X198288316Y-110548334D01*
X198288316Y-110548334D02*
X198227840Y-110518096D01*
X198227840Y-110518096D02*
X198197602Y-110487857D01*
X198197602Y-110487857D02*
X198167364Y-110427381D01*
X198167364Y-110427381D02*
X198167364Y-110245953D01*
X198167364Y-110245953D02*
X198197602Y-110185476D01*
X198197602Y-110185476D02*
X198227840Y-110155238D01*
X198227840Y-110155238D02*
X198288316Y-110125000D01*
X198288316Y-110125000D02*
X198409269Y-110125000D01*
X198409269Y-110125000D02*
X198469745Y-110155238D01*
X198711650Y-110125000D02*
X199044269Y-110125000D01*
X199044269Y-110125000D02*
X198711650Y-110548334D01*
X198711650Y-110548334D02*
X199044269Y-110548334D01*
X199528079Y-110518096D02*
X199467603Y-110548334D01*
X199467603Y-110548334D02*
X199346650Y-110548334D01*
X199346650Y-110548334D02*
X199286174Y-110518096D01*
X199286174Y-110518096D02*
X199255936Y-110457619D01*
X199255936Y-110457619D02*
X199255936Y-110215715D01*
X199255936Y-110215715D02*
X199286174Y-110155238D01*
X199286174Y-110155238D02*
X199346650Y-110125000D01*
X199346650Y-110125000D02*
X199467603Y-110125000D01*
X199467603Y-110125000D02*
X199528079Y-110155238D01*
X199528079Y-110155238D02*
X199558317Y-110215715D01*
X199558317Y-110215715D02*
X199558317Y-110276191D01*
X199558317Y-110276191D02*
X199255936Y-110336667D01*
X200495699Y-109913334D02*
X200495699Y-110366905D01*
X200495699Y-110366905D02*
X200465460Y-110457619D01*
X200465460Y-110457619D02*
X200404984Y-110518096D01*
X200404984Y-110518096D02*
X200314270Y-110548334D01*
X200314270Y-110548334D02*
X200253794Y-110548334D01*
X200798080Y-110548334D02*
X200798080Y-110125000D01*
X200798080Y-109913334D02*
X200767842Y-109943572D01*
X200767842Y-109943572D02*
X200798080Y-109973810D01*
X200798080Y-109973810D02*
X200828318Y-109943572D01*
X200828318Y-109943572D02*
X200798080Y-109913334D01*
X200798080Y-109913334D02*
X200798080Y-109973810D01*
X201100461Y-110125000D02*
X201100461Y-110548334D01*
X201100461Y-110185476D02*
X201130699Y-110155238D01*
X201130699Y-110155238D02*
X201191175Y-110125000D01*
X201191175Y-110125000D02*
X201281890Y-110125000D01*
X201281890Y-110125000D02*
X201342366Y-110155238D01*
X201342366Y-110155238D02*
X201372604Y-110215715D01*
X201372604Y-110215715D02*
X201372604Y-110548334D01*
%TO.C,G1*%
G36*
X200722871Y-132021005D02*
G01*
X200729200Y-132033392D01*
X200729568Y-132041668D01*
X200726414Y-132062874D01*
X200713847Y-132080328D01*
X200687216Y-132097183D01*
X200641868Y-132116590D01*
X200591604Y-132135135D01*
X200537764Y-132154218D01*
X200503146Y-132164863D01*
X200480421Y-132167911D01*
X200462258Y-132164204D01*
X200441326Y-132154583D01*
X200437736Y-132152801D01*
X200408469Y-132131025D01*
X200407193Y-132108720D01*
X200433776Y-132086077D01*
X200488088Y-132063289D01*
X200501025Y-132059116D01*
X200561086Y-132042328D01*
X200621681Y-132028433D01*
X200662763Y-132021431D01*
X200703105Y-132017739D01*
X200722871Y-132021005D01*
G37*
G36*
X201721097Y-132026208D02*
G01*
X201768033Y-132032137D01*
X201824073Y-132045972D01*
X201882436Y-132065126D01*
X201936340Y-132087017D01*
X201979006Y-132109058D01*
X202003652Y-132128666D01*
X202006929Y-132135159D01*
X202003499Y-132154601D01*
X201996380Y-132157863D01*
X201982994Y-132169238D01*
X201981285Y-132178959D01*
X201973315Y-132194264D01*
X201947853Y-132197743D01*
X201902570Y-132189140D01*
X201835140Y-132168195D01*
X201812514Y-132160277D01*
X201746069Y-132135853D01*
X201701779Y-132116926D01*
X201674981Y-132100505D01*
X201661013Y-132083602D01*
X201655212Y-132063225D01*
X201654689Y-132059077D01*
X201654314Y-132038522D01*
X201663768Y-132028519D01*
X201689838Y-132025709D01*
X201721097Y-132026208D01*
G37*
G36*
X201716184Y-132460775D02*
G01*
X201717283Y-132482768D01*
X201694990Y-132518151D01*
X201688196Y-132526207D01*
X201641307Y-132589430D01*
X201611313Y-132650150D01*
X201601551Y-132698637D01*
X201608187Y-132723990D01*
X201630097Y-132734257D01*
X201670279Y-132729720D01*
X201731325Y-132710806D01*
X201780766Y-132698053D01*
X201808443Y-132701010D01*
X201813755Y-132716855D01*
X201796099Y-132742765D01*
X201754875Y-132775920D01*
X201746403Y-132781484D01*
X201685760Y-132813755D01*
X201634641Y-132824602D01*
X201585996Y-132815328D01*
X201578828Y-132812432D01*
X201536496Y-132780523D01*
X201514865Y-132732247D01*
X201515570Y-132671914D01*
X201519399Y-132655555D01*
X201543513Y-132594225D01*
X201578464Y-132537515D01*
X201619260Y-132491289D01*
X201660913Y-132461408D01*
X201691643Y-132453212D01*
X201716184Y-132460775D01*
G37*
G36*
X200748868Y-132414987D02*
G01*
X200775867Y-132447919D01*
X200799794Y-132494785D01*
X200817594Y-132551075D01*
X200825082Y-132596725D01*
X200826897Y-132640287D01*
X200818708Y-132669649D01*
X200796043Y-132698190D01*
X200788635Y-132705723D01*
X200752467Y-132735156D01*
X200714327Y-132746822D01*
X200684942Y-132747998D01*
X200636635Y-132742706D01*
X200593454Y-132730304D01*
X200585764Y-132726637D01*
X200540662Y-132688868D01*
X200520098Y-132637457D01*
X200518605Y-132615875D01*
X200525380Y-132587153D01*
X200544609Y-132582830D01*
X200574648Y-132602963D01*
X200585285Y-132613530D01*
X200627328Y-132643505D01*
X200674945Y-132656283D01*
X200717401Y-132649069D01*
X200718871Y-132648309D01*
X200739563Y-132622042D01*
X200740121Y-132576219D01*
X200720548Y-132510926D01*
X200713447Y-132493740D01*
X200695737Y-132444672D01*
X200693942Y-132415780D01*
X200697873Y-132408960D01*
X200721851Y-132400498D01*
X200748868Y-132414987D01*
G37*
G36*
X201339008Y-132076352D02*
G01*
X201409836Y-132080476D01*
X201461039Y-132087689D01*
X201495427Y-132098339D01*
X201515809Y-132112772D01*
X201523061Y-132124813D01*
X201522139Y-132153651D01*
X201506339Y-132185663D01*
X201482966Y-132209079D01*
X201467616Y-132214120D01*
X201451183Y-132225016D01*
X201448343Y-132258253D01*
X201459136Y-132314653D01*
X201474973Y-132368826D01*
X201492485Y-132426290D01*
X201500410Y-132464471D01*
X201498461Y-132490634D01*
X201486352Y-132512042D01*
X201468580Y-132531204D01*
X201425363Y-132559734D01*
X201380563Y-132565285D01*
X201341340Y-132547911D01*
X201325710Y-132530115D01*
X201312784Y-132498545D01*
X201300856Y-132449172D01*
X201292379Y-132392286D01*
X201292042Y-132388946D01*
X201285885Y-132336935D01*
X201279104Y-132296396D01*
X201273021Y-132275012D01*
X201272220Y-132273900D01*
X201255254Y-132270572D01*
X201215961Y-132268450D01*
X201160124Y-132267706D01*
X201093525Y-132268508D01*
X201090795Y-132268572D01*
X200989146Y-132268656D01*
X200912184Y-132262768D01*
X200856935Y-132250041D01*
X200820427Y-132229611D01*
X200799683Y-132200610D01*
X200794209Y-132182199D01*
X200793702Y-132163170D01*
X200860198Y-132163170D01*
X200875037Y-132183310D01*
X200906299Y-132197852D01*
X200956970Y-132207396D01*
X201030038Y-132212544D01*
X201112495Y-132213913D01*
X201186332Y-132214207D01*
X201237197Y-132215490D01*
X201270247Y-132218664D01*
X201290636Y-132224634D01*
X201303522Y-132234301D01*
X201314061Y-132248570D01*
X201314541Y-132249301D01*
X201327936Y-132281331D01*
X201340247Y-132330370D01*
X201348224Y-132381340D01*
X201354904Y-132432269D01*
X201362195Y-132472682D01*
X201368519Y-132493832D01*
X201368520Y-132493833D01*
X201390613Y-132508616D01*
X201416796Y-132501479D01*
X201430610Y-132485718D01*
X201435560Y-132450475D01*
X201424429Y-132397817D01*
X201410406Y-132334245D01*
X201405306Y-132270893D01*
X201409069Y-132215932D01*
X201421637Y-132177538D01*
X201426043Y-132171601D01*
X201431755Y-132163362D01*
X201429694Y-132157098D01*
X201416501Y-132152386D01*
X201388817Y-132148798D01*
X201343283Y-132145912D01*
X201276539Y-132143301D01*
X201185225Y-132140541D01*
X201179143Y-132140369D01*
X201073122Y-132137732D01*
X200992220Y-132136735D01*
X200933463Y-132137589D01*
X200893876Y-132140507D01*
X200870487Y-132145701D01*
X200860321Y-132153385D01*
X200860198Y-132163170D01*
X200793702Y-132163170D01*
X200793147Y-132142341D01*
X200812148Y-132111230D01*
X200814084Y-132109257D01*
X200825615Y-132099451D01*
X200840589Y-132092052D01*
X200862994Y-132086635D01*
X200896818Y-132082777D01*
X200946046Y-132080054D01*
X201014666Y-132078043D01*
X201106665Y-132076320D01*
X201127241Y-132075988D01*
X201245747Y-132074972D01*
X201339008Y-132076352D01*
G37*
G36*
X201293675Y-129979333D02*
G01*
X201313651Y-129992646D01*
X201333561Y-130000596D01*
X201373798Y-129999572D01*
X201383969Y-129998206D01*
X201425757Y-129994592D01*
X201453524Y-130002070D01*
X201480354Y-130024203D01*
X201480720Y-130024569D01*
X201512458Y-130051298D01*
X201541359Y-130068034D01*
X201542987Y-130068593D01*
X201573219Y-130085559D01*
X201594517Y-130104484D01*
X201610661Y-130126269D01*
X201609048Y-130145503D01*
X201596372Y-130166919D01*
X201582337Y-130201565D01*
X201574963Y-130255021D01*
X201573322Y-130311438D01*
X201572010Y-130381240D01*
X201568681Y-130455627D01*
X201564471Y-130513566D01*
X201555720Y-130606201D01*
X201244610Y-130679140D01*
X201154102Y-130700122D01*
X201072080Y-130718686D01*
X201002738Y-130733920D01*
X200950273Y-130744910D01*
X200918880Y-130750743D01*
X200912403Y-130751440D01*
X200896894Y-130738063D01*
X200874306Y-130700210D01*
X200868887Y-130688747D01*
X200912403Y-130688747D01*
X200913738Y-130698065D01*
X200919870Y-130703992D01*
X200933991Y-130706065D01*
X200959294Y-130703821D01*
X200998971Y-130696797D01*
X201056214Y-130684530D01*
X201134216Y-130666558D01*
X201236169Y-130642416D01*
X201242913Y-130640810D01*
X201337341Y-130618202D01*
X201407930Y-130600739D01*
X201458222Y-130587120D01*
X201491759Y-130576047D01*
X201512084Y-130566223D01*
X201522738Y-130556347D01*
X201527263Y-130545122D01*
X201528648Y-130536047D01*
X201528606Y-130508523D01*
X201522737Y-130498284D01*
X201506218Y-130501911D01*
X201467508Y-130511900D01*
X201411471Y-130526909D01*
X201342969Y-130545598D01*
X201266866Y-130566628D01*
X201188025Y-130588657D01*
X201111309Y-130610345D01*
X201041580Y-130630352D01*
X201007337Y-130640340D01*
X200951028Y-130659832D01*
X200919115Y-130677735D01*
X200912403Y-130688747D01*
X200868887Y-130688747D01*
X200845959Y-130640250D01*
X200832824Y-130609378D01*
X200898418Y-130609378D01*
X200908511Y-130608135D01*
X200912403Y-130607073D01*
X200931741Y-130601688D01*
X200973879Y-130589937D01*
X201034524Y-130573018D01*
X201109383Y-130552130D01*
X201194163Y-130528469D01*
X201225333Y-130519769D01*
X201311053Y-130495322D01*
X201386818Y-130472717D01*
X201448707Y-130453206D01*
X201492799Y-130438042D01*
X201515173Y-130428477D01*
X201517165Y-130426547D01*
X201506902Y-130419293D01*
X201499585Y-130420670D01*
X201481220Y-130426232D01*
X201440199Y-130438329D01*
X201380886Y-130455684D01*
X201307646Y-130477021D01*
X201224845Y-130501063D01*
X201207752Y-130506017D01*
X201123236Y-130530867D01*
X201047167Y-130553918D01*
X200983993Y-130573769D01*
X200938160Y-130589016D01*
X200914115Y-130598255D01*
X200912403Y-130599199D01*
X200898418Y-130609378D01*
X200832824Y-130609378D01*
X200831534Y-130606346D01*
X200807196Y-130544970D01*
X200787632Y-130490771D01*
X200783543Y-130477565D01*
X200818749Y-130477565D01*
X200830598Y-130504452D01*
X200848517Y-130529197D01*
X200865922Y-130540465D01*
X200866369Y-130540477D01*
X200884974Y-130536682D01*
X200926558Y-130526028D01*
X200987119Y-130509613D01*
X201062655Y-130488532D01*
X201149166Y-130463882D01*
X201208686Y-130446670D01*
X201531230Y-130352863D01*
X201531230Y-130298047D01*
X201529725Y-130263202D01*
X201522172Y-130250021D01*
X201504009Y-130252078D01*
X201499585Y-130253466D01*
X201477478Y-130260246D01*
X201432597Y-130273724D01*
X201369146Y-130292648D01*
X201291332Y-130315765D01*
X201203362Y-130341822D01*
X201147071Y-130358459D01*
X201056758Y-130385320D01*
X200975720Y-130409783D01*
X200907769Y-130430668D01*
X200856716Y-130446796D01*
X200826370Y-130456986D01*
X200819551Y-130459870D01*
X200818749Y-130477565D01*
X200783543Y-130477565D01*
X200775134Y-130450407D01*
X200771761Y-130432567D01*
X200783605Y-130406475D01*
X200794147Y-130394506D01*
X200871674Y-130394506D01*
X200874308Y-130394092D01*
X200895080Y-130387865D01*
X200938337Y-130375091D01*
X200999560Y-130357099D01*
X201074230Y-130335216D01*
X201157828Y-130310769D01*
X201173544Y-130306179D01*
X201274764Y-130275829D01*
X201349496Y-130251487D01*
X201398621Y-130232674D01*
X201423021Y-130218912D01*
X201423580Y-130209722D01*
X201401178Y-130204626D01*
X201363566Y-130203150D01*
X201322187Y-130196067D01*
X201289325Y-130179287D01*
X201288878Y-130178889D01*
X201270662Y-130165167D01*
X201255980Y-130167356D01*
X201236157Y-130188379D01*
X201227244Y-130199646D01*
X201179173Y-130240288D01*
X201116996Y-130264015D01*
X201051550Y-130266909D01*
X201044402Y-130265747D01*
X201019793Y-130264676D01*
X200995039Y-130273868D01*
X200963470Y-130296961D01*
X200926468Y-130330078D01*
X200893253Y-130362763D01*
X200873938Y-130385529D01*
X200871674Y-130394506D01*
X200794147Y-130394506D01*
X200818463Y-130366899D01*
X200875323Y-130314983D01*
X200876899Y-130313638D01*
X200925070Y-130269961D01*
X200960859Y-130232271D01*
X200980164Y-130205080D01*
X200982381Y-130197563D01*
X200985117Y-130187526D01*
X201053046Y-130187526D01*
X201064152Y-130200319D01*
X201091057Y-130201991D01*
X201124141Y-130193464D01*
X201150874Y-130178138D01*
X201181497Y-130153341D01*
X201147020Y-130120951D01*
X201112542Y-130088561D01*
X201082794Y-130130339D01*
X201063005Y-130162059D01*
X201053258Y-130185388D01*
X201053046Y-130187526D01*
X200985117Y-130187526D01*
X200991863Y-130162775D01*
X201015067Y-130119732D01*
X201043669Y-130081427D01*
X201211857Y-130081427D01*
X201219298Y-130107150D01*
X201238469Y-130121622D01*
X201267033Y-130116927D01*
X201267682Y-130116584D01*
X201292799Y-130109253D01*
X201313224Y-130123479D01*
X201318946Y-130130635D01*
X201346657Y-130152296D01*
X201373931Y-130151520D01*
X201412711Y-130150812D01*
X201437220Y-130158135D01*
X201509386Y-130182513D01*
X201534746Y-130187239D01*
X201546588Y-130178134D01*
X201547403Y-130174807D01*
X201548640Y-130141927D01*
X201534612Y-130125822D01*
X201503101Y-130118550D01*
X201467144Y-130108654D01*
X201451414Y-130089204D01*
X201449382Y-130079873D01*
X201434988Y-130054079D01*
X201402625Y-130049398D01*
X201356502Y-130064362D01*
X201328737Y-130072740D01*
X201307955Y-130062849D01*
X201293433Y-130046781D01*
X201269791Y-130024399D01*
X201249170Y-130023884D01*
X201241508Y-130027889D01*
X201218482Y-130052368D01*
X201211857Y-130081427D01*
X201043669Y-130081427D01*
X201045180Y-130079403D01*
X201070307Y-130056010D01*
X201111046Y-130042269D01*
X201139475Y-130043715D01*
X201169036Y-130045848D01*
X201179315Y-130034196D01*
X201179624Y-130029385D01*
X201191902Y-130005633D01*
X201221870Y-129987491D01*
X201259228Y-129977783D01*
X201293675Y-129979333D01*
G37*
G36*
X201194807Y-129654668D02*
G01*
X201237999Y-129671467D01*
X201286865Y-129698606D01*
X201329385Y-129730361D01*
X201349439Y-129751284D01*
X201371819Y-129778431D01*
X201387331Y-129785074D01*
X201403973Y-129774590D01*
X201404200Y-129774384D01*
X201464311Y-129737253D01*
X201540181Y-129716392D01*
X201623778Y-129713073D01*
X201702717Y-129727227D01*
X201754674Y-129751605D01*
X201810350Y-129791388D01*
X201860905Y-129838928D01*
X201897503Y-129886578D01*
X201905857Y-129902992D01*
X201920640Y-129962506D01*
X201924071Y-130033684D01*
X201916183Y-130102474D01*
X201905272Y-130138608D01*
X201894124Y-130168984D01*
X201896437Y-130187898D01*
X201916200Y-130205849D01*
X201935814Y-130219026D01*
X201994505Y-130266588D01*
X202028801Y-130318391D01*
X202042367Y-130380620D01*
X202042951Y-130399779D01*
X202045067Y-130443585D01*
X202052585Y-130465147D01*
X202064859Y-130470208D01*
X202090813Y-130477228D01*
X202126201Y-130494415D01*
X202132255Y-130497995D01*
X202167892Y-130528641D01*
X202184808Y-130570906D01*
X202186310Y-130579310D01*
X202201166Y-130624661D01*
X202232172Y-130654229D01*
X202235756Y-130656350D01*
X202263826Y-130677854D01*
X202275140Y-130706352D01*
X202276634Y-130733909D01*
X202273129Y-130772694D01*
X202264475Y-130799509D01*
X202262237Y-130802404D01*
X202259050Y-130821449D01*
X202276301Y-130842557D01*
X202299292Y-130880440D01*
X202304627Y-130929043D01*
X202292375Y-130977245D01*
X202275283Y-131002806D01*
X202222974Y-131043475D01*
X202167930Y-131058618D01*
X202114229Y-131047603D01*
X202088663Y-131031704D01*
X202058786Y-130995656D01*
X202052615Y-130962070D01*
X202114856Y-130962070D01*
X202117362Y-130970792D01*
X202136506Y-130986617D01*
X202169322Y-130989315D01*
X202204804Y-130979255D01*
X202222786Y-130967256D01*
X202244160Y-130933307D01*
X202246122Y-130895139D01*
X202228419Y-130864792D01*
X202199176Y-130855809D01*
X202166788Y-130867164D01*
X202137665Y-130892738D01*
X202118218Y-130926413D01*
X202114856Y-130962070D01*
X202052615Y-130962070D01*
X202051606Y-130956577D01*
X202048748Y-130926593D01*
X202035097Y-130909213D01*
X202003041Y-130896107D01*
X201993760Y-130893268D01*
X201952504Y-130875243D01*
X201930390Y-130853512D01*
X201929151Y-130850074D01*
X201918489Y-130833898D01*
X201892783Y-130824487D01*
X201846336Y-130819470D01*
X201802337Y-130817812D01*
X201779534Y-130821311D01*
X201771161Y-130832047D01*
X201770250Y-130842857D01*
X201757424Y-130890563D01*
X201722635Y-130938321D01*
X201671254Y-130979544D01*
X201648634Y-130992057D01*
X201565147Y-131019184D01*
X201475132Y-131024923D01*
X201386084Y-131010362D01*
X201305500Y-130976588D01*
X201249921Y-130934251D01*
X201230877Y-130917507D01*
X201217253Y-130918850D01*
X201199239Y-130940567D01*
X201194524Y-130947165D01*
X201144113Y-130994405D01*
X201075023Y-131023527D01*
X200997481Y-131032725D01*
X200919158Y-131020989D01*
X200845605Y-130988753D01*
X200783541Y-130940476D01*
X200739685Y-130880617D01*
X200728743Y-130854420D01*
X200715712Y-130823985D01*
X200696826Y-130810737D01*
X200661451Y-130807707D01*
X200657458Y-130807697D01*
X200581977Y-130794503D01*
X200516907Y-130756203D01*
X200464872Y-130694721D01*
X200441923Y-130649734D01*
X200422435Y-130568064D01*
X200425964Y-130505657D01*
X200482658Y-130505657D01*
X200484562Y-130581913D01*
X200512341Y-130651059D01*
X200563865Y-130708611D01*
X200586860Y-130725024D01*
X200630183Y-130748360D01*
X200670071Y-130763094D01*
X200686613Y-130765720D01*
X200724643Y-130770839D01*
X200751362Y-130790056D01*
X200775495Y-130828793D01*
X200825519Y-130896225D01*
X200894449Y-130944546D01*
X200921618Y-130955953D01*
X200966591Y-130970168D01*
X201001163Y-130973734D01*
X201036297Y-130965612D01*
X201082956Y-130944762D01*
X201093220Y-130939679D01*
X201138299Y-130912858D01*
X201175249Y-130883245D01*
X201190174Y-130865842D01*
X201207287Y-130838503D01*
X201216340Y-130824178D01*
X201216388Y-130824105D01*
X201227044Y-130830516D01*
X201251321Y-130851970D01*
X201274363Y-130874308D01*
X201340678Y-130923249D01*
X201416699Y-130951286D01*
X201496706Y-130958909D01*
X201574984Y-130946610D01*
X201645816Y-130914877D01*
X201703482Y-130864202D01*
X201723359Y-130835783D01*
X201750465Y-130804103D01*
X201781856Y-130785507D01*
X201784244Y-130784914D01*
X201854920Y-130767757D01*
X201900885Y-130751298D01*
X201925467Y-130733993D01*
X201932060Y-130716279D01*
X201922925Y-130693437D01*
X201892752Y-130683640D01*
X201865392Y-130676921D01*
X201859742Y-130661051D01*
X201862724Y-130648479D01*
X201871733Y-130629282D01*
X201933293Y-130629282D01*
X201964321Y-130649884D01*
X201989673Y-130682070D01*
X201993805Y-130726369D01*
X201979504Y-130768831D01*
X201971466Y-130795010D01*
X201985631Y-130814417D01*
X201989224Y-130817132D01*
X202030117Y-130833738D01*
X202082841Y-130830255D01*
X202136117Y-130813038D01*
X202184813Y-130786115D01*
X202210425Y-130756014D01*
X202212271Y-130726699D01*
X202189672Y-130702131D01*
X202157316Y-130689465D01*
X202134942Y-130678915D01*
X202123672Y-130656317D01*
X202119217Y-130621385D01*
X202112647Y-130579847D01*
X202097037Y-130555897D01*
X202077619Y-130544002D01*
X202042981Y-130532917D01*
X202014007Y-130539800D01*
X201983027Y-130567575D01*
X201967837Y-130585841D01*
X201933293Y-130629282D01*
X201871733Y-130629282D01*
X201879361Y-130613026D01*
X201895478Y-130589701D01*
X201927420Y-130544053D01*
X201955533Y-130491184D01*
X201975038Y-130441229D01*
X201981285Y-130407769D01*
X201968131Y-130346136D01*
X201929226Y-130294840D01*
X201872671Y-130258357D01*
X201834000Y-130239740D01*
X201807280Y-130226335D01*
X201800229Y-130222363D01*
X201802863Y-130208663D01*
X201815670Y-130179045D01*
X201823075Y-130164307D01*
X201854580Y-130088143D01*
X201863692Y-130020316D01*
X201855838Y-129968042D01*
X201825901Y-129906413D01*
X201775047Y-129851960D01*
X201710412Y-129809846D01*
X201639136Y-129785232D01*
X201597206Y-129781008D01*
X201545616Y-129786380D01*
X201487483Y-129800276D01*
X201433740Y-129819366D01*
X201395322Y-129840323D01*
X201391229Y-129843717D01*
X201374414Y-129855679D01*
X201359705Y-129852441D01*
X201339507Y-129830702D01*
X201328455Y-129816435D01*
X201267808Y-129758861D01*
X201192150Y-129720584D01*
X201108001Y-129702796D01*
X201021878Y-129706691D01*
X200940300Y-129733461D01*
X200923871Y-129742386D01*
X200879543Y-129773120D01*
X200841277Y-129807497D01*
X200827979Y-129823255D01*
X200800872Y-129851318D01*
X200773581Y-129865103D01*
X200770105Y-129865393D01*
X200722536Y-129876356D01*
X200668114Y-129905368D01*
X200614872Y-129946610D01*
X200570846Y-129994268D01*
X200552510Y-130022918D01*
X200537618Y-130064924D01*
X200532722Y-130100271D01*
X200540686Y-130140116D01*
X200560505Y-130183990D01*
X200586207Y-130221102D01*
X200610103Y-130240073D01*
X200629216Y-130257364D01*
X200625404Y-130278273D01*
X200604209Y-130291077D01*
X200580523Y-130308440D01*
X200552453Y-130344986D01*
X200524289Y-130393142D01*
X200500323Y-130445332D01*
X200484845Y-130493982D01*
X200482658Y-130505657D01*
X200425964Y-130505657D01*
X200427384Y-130480545D01*
X200455645Y-130393068D01*
X200506094Y-130311521D01*
X200506659Y-130310815D01*
X200549855Y-130256957D01*
X200512006Y-130217451D01*
X200476072Y-130163441D01*
X200466066Y-130102387D01*
X200481897Y-130032553D01*
X200500425Y-129991972D01*
X200535179Y-129936472D01*
X200577268Y-129895454D01*
X200617043Y-129868910D01*
X200664746Y-129844257D01*
X200709893Y-129827482D01*
X200735978Y-129822756D01*
X200765637Y-129817798D01*
X200789474Y-129799422D01*
X200815342Y-129762016D01*
X200866555Y-129703321D01*
X200935381Y-129662109D01*
X201016547Y-129639510D01*
X201104780Y-129636653D01*
X201194807Y-129654668D01*
G37*
G36*
X201943546Y-131124418D02*
G01*
X202070635Y-131134507D01*
X202186930Y-131149364D01*
X202239765Y-131158734D01*
X202467966Y-131215429D01*
X202683339Y-131291581D01*
X202884232Y-131385857D01*
X203068994Y-131496925D01*
X203235973Y-131623452D01*
X203383518Y-131764108D01*
X203509975Y-131917558D01*
X203613695Y-132082470D01*
X203693024Y-132257513D01*
X203725543Y-132357204D01*
X203745807Y-132451845D01*
X203759117Y-132561844D01*
X203764840Y-132676156D01*
X203762345Y-132783733D01*
X203754122Y-132856837D01*
X203722439Y-132975094D01*
X203669234Y-133093898D01*
X203599128Y-133203419D01*
X203579526Y-133228168D01*
X203547732Y-133267506D01*
X203524512Y-133298041D01*
X203514403Y-133313777D01*
X203514286Y-133314363D01*
X203525814Y-133324217D01*
X203553836Y-133338149D01*
X203556543Y-133339285D01*
X203607202Y-133372048D01*
X203654389Y-133422790D01*
X203689672Y-133481801D01*
X203697182Y-133501182D01*
X203710243Y-133572229D01*
X203708281Y-133650732D01*
X203692575Y-133725611D01*
X203664404Y-133785788D01*
X203664321Y-133785908D01*
X203607473Y-133844952D01*
X203532671Y-133889296D01*
X203447475Y-133916082D01*
X203359445Y-133922451D01*
X203317160Y-133917172D01*
X203241066Y-133890795D01*
X203169781Y-133846167D01*
X203114317Y-133790347D01*
X203110133Y-133784519D01*
X203089657Y-133751475D01*
X203077899Y-133719729D01*
X203072540Y-133679508D01*
X203071263Y-133621040D01*
X203071263Y-133620651D01*
X203071548Y-133606653D01*
X203176745Y-133606653D01*
X203188363Y-133681736D01*
X203222057Y-133740232D01*
X203276088Y-133780517D01*
X203348713Y-133800971D01*
X203387708Y-133803273D01*
X203464604Y-133794627D01*
X203510006Y-133775868D01*
X203565230Y-133729328D01*
X203595893Y-133670505D01*
X203604081Y-133606479D01*
X203591352Y-133533279D01*
X203554815Y-133472841D01*
X203496940Y-133427900D01*
X203420199Y-133401191D01*
X203418230Y-133400813D01*
X203376536Y-133399092D01*
X203335442Y-133412383D01*
X203289275Y-133443486D01*
X203237769Y-133489924D01*
X203202339Y-133527196D01*
X203183884Y-133556969D01*
X203177248Y-133589107D01*
X203176745Y-133606653D01*
X203071548Y-133606653D01*
X203072445Y-133562610D01*
X203077448Y-133523468D01*
X203088458Y-133494044D01*
X203107660Y-133465156D01*
X203108558Y-133463975D01*
X203131032Y-133432487D01*
X203137512Y-133412606D01*
X203129725Y-133394098D01*
X203122115Y-133383608D01*
X203098376Y-133352137D01*
X203066120Y-133386472D01*
X203017785Y-133423589D01*
X202946961Y-133458465D01*
X202859288Y-133488828D01*
X202760405Y-133512406D01*
X202747786Y-133514719D01*
X202664043Y-133530114D01*
X202599233Y-133543706D01*
X202544456Y-133557743D01*
X202490809Y-133574474D01*
X202438372Y-133592882D01*
X202343289Y-133615015D01*
X202254048Y-133611161D01*
X202173370Y-133581462D01*
X202168807Y-133578830D01*
X202153653Y-133570687D01*
X202136708Y-133564251D01*
X202114662Y-133559323D01*
X202084206Y-133555701D01*
X202042030Y-133553185D01*
X201984823Y-133551575D01*
X201909277Y-133550671D01*
X201812082Y-133550271D01*
X201695680Y-133550176D01*
X201517250Y-133549174D01*
X201330711Y-133546333D01*
X201141861Y-133541845D01*
X200956496Y-133535902D01*
X200780414Y-133528695D01*
X200619413Y-133520418D01*
X200479291Y-133511261D01*
X200448284Y-133508864D01*
X200382030Y-133503883D01*
X200337549Y-133502105D01*
X200308597Y-133504215D01*
X200288931Y-133510898D01*
X200272307Y-133522839D01*
X200265449Y-133528935D01*
X200215898Y-133566741D01*
X200164908Y-133587394D01*
X200101235Y-133594922D01*
X200080412Y-133595227D01*
X199990946Y-133583270D01*
X199904947Y-133549927D01*
X199825500Y-133498994D01*
X199755687Y-133434266D01*
X199698592Y-133359539D01*
X199657300Y-133278609D01*
X199634893Y-133195270D01*
X199634457Y-133113318D01*
X199647485Y-133062405D01*
X199673698Y-133017091D01*
X199674697Y-133015933D01*
X199844277Y-133015933D01*
X199844346Y-133021270D01*
X199865188Y-133035276D01*
X199894680Y-133051035D01*
X199959254Y-133090350D01*
X200027497Y-133143569D01*
X200091157Y-133203280D01*
X200141976Y-133262075D01*
X200160507Y-133289686D01*
X200181751Y-133335973D01*
X200194097Y-133382266D01*
X200195343Y-133396751D01*
X200197302Y-133426303D01*
X200203696Y-133430529D01*
X200209192Y-133423644D01*
X200218564Y-133395666D01*
X200222994Y-133356029D01*
X200223041Y-133352560D01*
X200212454Y-133300734D01*
X200183577Y-133240252D01*
X200141317Y-133178365D01*
X200090583Y-133122327D01*
X200039572Y-133081475D01*
X200004186Y-133063610D01*
X199955052Y-133044525D01*
X199903281Y-133027948D01*
X199859984Y-133017609D01*
X199844277Y-133015933D01*
X199674697Y-133015933D01*
X199716672Y-132967253D01*
X199753432Y-132934751D01*
X199934939Y-132934751D01*
X199992655Y-132952078D01*
X200084961Y-132993503D01*
X200169776Y-133057368D01*
X200242231Y-133138108D01*
X200297455Y-133230157D01*
X200330579Y-133327950D01*
X200333062Y-133341111D01*
X200343520Y-133402547D01*
X200490835Y-133413257D01*
X200629617Y-133421999D01*
X200791194Y-133429852D01*
X200970242Y-133436648D01*
X201161438Y-133442219D01*
X201359458Y-133446398D01*
X201558978Y-133449016D01*
X201645268Y-133449627D01*
X202061688Y-133451772D01*
X202062924Y-133364587D01*
X202076638Y-133271522D01*
X202112398Y-133178043D01*
X202165999Y-133090110D01*
X202233234Y-133013680D01*
X202309898Y-132954711D01*
X202373445Y-132924702D01*
X202416482Y-132911744D01*
X202451480Y-132904120D01*
X202460802Y-132903267D01*
X202484542Y-132895275D01*
X202490639Y-132887109D01*
X202507241Y-132876744D01*
X202540757Y-132879426D01*
X202584273Y-132893253D01*
X202630879Y-132916321D01*
X202655790Y-132932594D01*
X202706642Y-132978992D01*
X202737898Y-133033170D01*
X202751892Y-133101095D01*
X202751727Y-133177833D01*
X202738650Y-133268473D01*
X202710226Y-133346659D01*
X202707906Y-133351346D01*
X202687931Y-133391972D01*
X202674337Y-133421258D01*
X202670432Y-133431480D01*
X202682709Y-133433496D01*
X202715302Y-133428033D01*
X202761855Y-133416548D01*
X202816013Y-133400494D01*
X202839185Y-133392846D01*
X202930385Y-133355322D01*
X202996691Y-133311194D01*
X203041248Y-133256107D01*
X203067199Y-133185707D01*
X203077690Y-133095638D01*
X203078295Y-133061680D01*
X203077836Y-133008722D01*
X203075061Y-132968175D01*
X203067870Y-132932422D01*
X203054164Y-132893849D01*
X203031846Y-132844843D01*
X203001582Y-132783351D01*
X202938847Y-132666366D01*
X202872882Y-132564103D01*
X202797485Y-132468228D01*
X202706454Y-132370406D01*
X202661256Y-132325953D01*
X202501973Y-132189522D01*
X202323480Y-132066874D01*
X202130715Y-131960237D01*
X201928617Y-131871841D01*
X201722122Y-131803916D01*
X201516170Y-131758691D01*
X201365757Y-131741060D01*
X201224102Y-131739398D01*
X201067665Y-131751922D01*
X200905124Y-131777301D01*
X200745156Y-131814202D01*
X200606670Y-131857561D01*
X200551788Y-131879587D01*
X200507827Y-131904088D01*
X200465463Y-131937383D01*
X200415371Y-131985788D01*
X200411387Y-131989851D01*
X200303914Y-132108726D01*
X200206232Y-132234508D01*
X200120436Y-132363393D01*
X200048624Y-132491577D01*
X199992893Y-132615255D01*
X199955339Y-132730624D01*
X199938058Y-132833879D01*
X199937283Y-132850092D01*
X199934939Y-132934751D01*
X199753432Y-132934751D01*
X199768334Y-132921575D01*
X199796872Y-132901774D01*
X199823434Y-132881895D01*
X199838814Y-132857738D01*
X199847862Y-132819688D01*
X199851375Y-132793704D01*
X199873016Y-132690947D01*
X199913129Y-132575624D01*
X199968888Y-132453545D01*
X200037466Y-132330516D01*
X200116036Y-132212346D01*
X200166170Y-132146967D01*
X200201295Y-132103109D01*
X200220894Y-132075160D01*
X200227203Y-132057214D01*
X200222454Y-132043366D01*
X200210591Y-132029547D01*
X200178636Y-131977272D01*
X200174598Y-131941893D01*
X200254840Y-131941893D01*
X200268092Y-131978789D01*
X200279606Y-131990449D01*
X200293133Y-131990269D01*
X200314349Y-131975614D01*
X200348931Y-131943848D01*
X200354213Y-131938796D01*
X200428163Y-131881154D01*
X200525219Y-131825790D01*
X200640360Y-131774453D01*
X200768569Y-131728890D01*
X200904826Y-131690851D01*
X201044112Y-131662085D01*
X201181409Y-131644341D01*
X201204454Y-131642527D01*
X201362263Y-131642547D01*
X201533472Y-131662777D01*
X201713569Y-131701743D01*
X201898039Y-131757969D01*
X202082370Y-131829979D01*
X202262049Y-131916297D01*
X202432563Y-132015447D01*
X202515726Y-132071315D01*
X202588234Y-132127481D01*
X202670000Y-132198804D01*
X202753832Y-132278330D01*
X202832538Y-132359106D01*
X202898929Y-132434178D01*
X202925022Y-132467088D01*
X203016394Y-132604620D01*
X203088198Y-132747158D01*
X203137537Y-132888593D01*
X203149795Y-132940787D01*
X203161854Y-133007636D01*
X203171149Y-133072287D01*
X203176270Y-133124342D01*
X203176837Y-133140203D01*
X203176930Y-133205648D01*
X203204888Y-133163456D01*
X203226545Y-133123815D01*
X203248260Y-133073517D01*
X203255489Y-133053438D01*
X203268261Y-132979408D01*
X203265815Y-132910546D01*
X203438777Y-132910546D01*
X203443956Y-132955020D01*
X203455992Y-133005123D01*
X203472300Y-133053915D01*
X203490294Y-133094456D01*
X203507389Y-133119805D01*
X203518502Y-133124545D01*
X203532823Y-133110485D01*
X203554686Y-133079242D01*
X203572115Y-133050188D01*
X203614667Y-132954435D01*
X203643514Y-132847387D01*
X203654884Y-132743306D01*
X203654928Y-132737049D01*
X203654317Y-132693503D01*
X203650110Y-132671966D01*
X203638748Y-132666315D01*
X203616673Y-132670432D01*
X203616252Y-132670534D01*
X203568010Y-132691958D01*
X203517209Y-132729249D01*
X203474728Y-132773564D01*
X203458154Y-132799063D01*
X203445839Y-132838074D01*
X203439188Y-132888862D01*
X203438777Y-132910546D01*
X203265815Y-132910546D01*
X203264988Y-132887253D01*
X203247027Y-132780946D01*
X203215738Y-132664461D01*
X203172477Y-132541771D01*
X203118602Y-132416851D01*
X203055472Y-132293673D01*
X202984443Y-132176212D01*
X202928512Y-132096526D01*
X202804041Y-131950154D01*
X202657087Y-131810513D01*
X202493155Y-131681545D01*
X202317751Y-131567194D01*
X202136381Y-131471403D01*
X201954552Y-131398113D01*
X201952056Y-131397275D01*
X201815953Y-131362606D01*
X201663188Y-131342682D01*
X201501163Y-131337688D01*
X201337282Y-131347807D01*
X201178949Y-131373224D01*
X201159494Y-131377584D01*
X201103804Y-131392133D01*
X201040443Y-131411231D01*
X200975447Y-131432733D01*
X200914850Y-131454495D01*
X200864688Y-131474373D01*
X200830996Y-131490220D01*
X200820166Y-131498171D01*
X200828342Y-131505090D01*
X200857700Y-131509713D01*
X200889647Y-131510908D01*
X200940120Y-131514570D01*
X200971619Y-131524388D01*
X200981035Y-131538612D01*
X200966946Y-131554458D01*
X200939273Y-131563501D01*
X200905272Y-131566950D01*
X200856140Y-131572643D01*
X200788889Y-131587816D01*
X200710947Y-131610183D01*
X200629746Y-131637458D01*
X200552716Y-131667355D01*
X200497509Y-131692405D01*
X200414141Y-131740063D01*
X200345933Y-131791660D01*
X200295141Y-131844376D01*
X200264025Y-131895393D01*
X200254840Y-131941893D01*
X200174598Y-131941893D01*
X200171955Y-131918730D01*
X200188983Y-131856075D01*
X200228157Y-131791459D01*
X200287911Y-131727035D01*
X200366680Y-131664955D01*
X200462901Y-131607373D01*
X200545802Y-131568338D01*
X200597008Y-131542255D01*
X200644339Y-131510901D01*
X200665100Y-131493155D01*
X200704013Y-131462787D01*
X200762938Y-131427189D01*
X200835093Y-131389687D01*
X200913692Y-131353604D01*
X200991953Y-131322267D01*
X201058794Y-131300207D01*
X201111932Y-131282427D01*
X201157490Y-131262527D01*
X201185372Y-131244990D01*
X201218381Y-131222700D01*
X201632421Y-131222700D01*
X201636711Y-131223782D01*
X201815064Y-131255798D01*
X201976689Y-131297155D01*
X202127064Y-131350345D01*
X202271670Y-131417860D01*
X202415988Y-131502193D01*
X202565496Y-131605837D01*
X202691529Y-131703529D01*
X202808706Y-131804478D01*
X202908216Y-131905830D01*
X202999003Y-132017095D01*
X203040638Y-132074709D01*
X203100251Y-132167538D01*
X203159753Y-132273482D01*
X203213488Y-132381718D01*
X203255802Y-132481421D01*
X203262231Y-132498921D01*
X203279901Y-132545367D01*
X203294926Y-132579197D01*
X203304303Y-132593721D01*
X203304816Y-132593854D01*
X203320907Y-132585998D01*
X203347721Y-132567006D01*
X203348867Y-132566108D01*
X203394297Y-132512912D01*
X203421757Y-132440608D01*
X203429901Y-132362625D01*
X203416727Y-132271137D01*
X203378415Y-132190586D01*
X203316774Y-132123855D01*
X203254622Y-132083736D01*
X203212953Y-132062524D01*
X203216978Y-131944939D01*
X203216707Y-131861788D01*
X203207002Y-131797479D01*
X203184273Y-131744813D01*
X203144935Y-131696595D01*
X203085398Y-131645625D01*
X203057199Y-131624382D01*
X202877496Y-131508433D01*
X202678793Y-131410632D01*
X202464439Y-131332048D01*
X202237784Y-131273748D01*
X202002175Y-131236799D01*
X201798450Y-131223008D01*
X201730484Y-131221485D01*
X201677715Y-131220938D01*
X201643807Y-131221349D01*
X201632421Y-131222700D01*
X201218381Y-131222700D01*
X201237244Y-131209962D01*
X201312925Y-131178097D01*
X201408141Y-131150967D01*
X201480445Y-131136275D01*
X201574114Y-131125026D01*
X201687627Y-131119451D01*
X201813324Y-131119324D01*
X201943546Y-131124418D01*
G37*
%TD*%
D11*
%TO.C,U30*%
X153440951Y-131463800D03*
X154710951Y-131463800D03*
X155980951Y-131463800D03*
X157250951Y-131463800D03*
X157250951Y-126536200D03*
X155980951Y-126536200D03*
X154710951Y-126536200D03*
X153440951Y-126536200D03*
%TD*%
D12*
%TO.C,R11*%
X135412500Y-91385000D03*
X137237500Y-91385000D03*
%TD*%
D13*
%TO.C,J19*%
X163570951Y-121500000D03*
D14*
X166110951Y-121500000D03*
%TD*%
D15*
%TO.C,C55*%
X188000000Y-114950000D03*
X188000000Y-113050000D03*
%TD*%
D12*
%TO.C,R6*%
X195675000Y-106300000D03*
X197500000Y-106300000D03*
%TD*%
D16*
%TO.C,R51*%
X122412500Y-105005600D03*
X120587500Y-105005600D03*
%TD*%
D15*
%TO.C,C29*%
X175845951Y-75950000D03*
X175845951Y-74050000D03*
%TD*%
D16*
%TO.C,R15*%
X122237500Y-92940000D03*
X120412500Y-92940000D03*
%TD*%
D17*
%TO.C,C28*%
X160895951Y-86500000D03*
X162795951Y-86500000D03*
%TD*%
D13*
%TO.C,J18*%
X163570951Y-105500000D03*
D14*
X166110951Y-105500000D03*
%TD*%
D17*
%TO.C,C24*%
X140895951Y-86500000D03*
X142795951Y-86500000D03*
%TD*%
D18*
%TO.C,R32*%
X132615000Y-129093100D03*
X132615000Y-130918100D03*
%TD*%
D19*
%TO.C,C16*%
X197600000Y-100550000D03*
X197600000Y-102450000D03*
%TD*%
D12*
%TO.C,R92*%
X202175000Y-120460000D03*
X204000000Y-120460000D03*
%TD*%
D17*
%TO.C,C51*%
X168050000Y-134500000D03*
X169950000Y-134500000D03*
%TD*%
D18*
%TO.C,R88*%
X194500000Y-129087500D03*
X194500000Y-130912500D03*
%TD*%
D20*
%TO.C,U4*%
X131575000Y-93195000D03*
X131575000Y-91925000D03*
X131575000Y-90655000D03*
X131575000Y-89385000D03*
X131575000Y-88115000D03*
X131575000Y-86845000D03*
X131575000Y-85575000D03*
X131575000Y-84305000D03*
X126425000Y-84305000D03*
X126425000Y-85575000D03*
X126425000Y-86845000D03*
X126425000Y-88115000D03*
X126425000Y-89385000D03*
X126425000Y-90655000D03*
X126425000Y-91925000D03*
X126425000Y-93195000D03*
%TD*%
D17*
%TO.C,C59*%
X196050000Y-122900000D03*
X197950000Y-122900000D03*
%TD*%
D18*
%TO.C,R98*%
X189500000Y-76587500D03*
X189500000Y-78412500D03*
%TD*%
D21*
%TO.C,R61*%
X170845951Y-79912500D03*
X170845951Y-78087500D03*
%TD*%
D16*
%TO.C,R86*%
X186066549Y-132912500D03*
X184241549Y-132912500D03*
%TD*%
D22*
%TO.C,TP6*%
X117835000Y-107251551D03*
%TD*%
D19*
%TO.C,C61*%
X190000000Y-129050000D03*
X190000000Y-130950000D03*
%TD*%
D16*
%TO.C,R49*%
X130007500Y-107251551D03*
X128182500Y-107251551D03*
%TD*%
D21*
%TO.C,R38*%
X124615000Y-130918100D03*
X124615000Y-129093100D03*
%TD*%
D23*
%TO.C,J11*%
X109000000Y-105920000D03*
D14*
X109000000Y-108460000D03*
X109000000Y-111000000D03*
X109000000Y-113540000D03*
%TD*%
D21*
%TO.C,R26*%
X137835000Y-111918100D03*
X137835000Y-110093100D03*
%TD*%
D24*
%TO.C,TP20*%
X164923976Y-131830000D03*
%TD*%
D17*
%TO.C,C47*%
X148050000Y-134500000D03*
X149950000Y-134500000D03*
%TD*%
D25*
%TO.C,U1*%
X186700000Y-99700000D03*
X186700000Y-100652500D03*
X186700000Y-101605000D03*
X189138400Y-101605000D03*
X189138400Y-99700000D03*
%TD*%
D22*
%TO.C,TP9*%
X125835000Y-107251551D03*
%TD*%
D18*
%TO.C,R44*%
X126615000Y-129093100D03*
X126615000Y-130918100D03*
%TD*%
%TO.C,R99*%
X181250000Y-76337500D03*
X181250000Y-78162500D03*
%TD*%
D26*
%TO.C,J9*%
X181250000Y-113000000D03*
%TD*%
D21*
%TO.C,R39*%
X123835000Y-111918100D03*
X123835000Y-110093100D03*
%TD*%
%TO.C,R62*%
X122525000Y-78162500D03*
X122525000Y-76337500D03*
%TD*%
D26*
%TO.C,J13*%
X137000000Y-116500000D03*
%TD*%
D27*
%TO.C,U28*%
X142495951Y-129170000D03*
X141845951Y-129170000D03*
X141195951Y-129170000D03*
X141195951Y-131830000D03*
X141845951Y-131830000D03*
X142495951Y-131830000D03*
%TD*%
D15*
%TO.C,C56*%
X190000000Y-114950000D03*
X190000000Y-113050000D03*
%TD*%
D24*
%TO.C,TP25*%
X198500000Y-116100000D03*
%TD*%
D12*
%TO.C,R25*%
X120412500Y-84940000D03*
X122237500Y-84940000D03*
%TD*%
%TO.C,R7*%
X199675000Y-106300000D03*
X201500000Y-106300000D03*
%TD*%
D15*
%TO.C,C22*%
X145845951Y-123450000D03*
X145845951Y-121550000D03*
%TD*%
D17*
%TO.C,C52*%
X160895951Y-134500000D03*
X162795951Y-134500000D03*
%TD*%
D27*
%TO.C,U11*%
X148650000Y-81170000D03*
X148000000Y-81170000D03*
X147350000Y-81170000D03*
X147350000Y-83830000D03*
X148000000Y-83830000D03*
X148650000Y-83830000D03*
%TD*%
D18*
%TO.C,R22*%
X117825000Y-96277500D03*
X117825000Y-98102500D03*
%TD*%
D21*
%TO.C,R31*%
X131835000Y-111918100D03*
X131835000Y-110093100D03*
%TD*%
%TO.C,R28*%
X133835000Y-111918100D03*
X133835000Y-110093100D03*
%TD*%
%TO.C,R70*%
X162750000Y-94162500D03*
X162750000Y-92337500D03*
%TD*%
D11*
%TO.C,U24*%
X153440951Y-115463800D03*
X154710951Y-115463800D03*
X155980951Y-115463800D03*
X157250951Y-115463800D03*
X157250951Y-110536200D03*
X155980951Y-110536200D03*
X154710951Y-110536200D03*
X153440951Y-110536200D03*
%TD*%
%TO.C,U21*%
X173440951Y-99463800D03*
X174710951Y-99463800D03*
X175980951Y-99463800D03*
X177250951Y-99463800D03*
X177250951Y-94536200D03*
X175980951Y-94536200D03*
X174710951Y-94536200D03*
X173440951Y-94536200D03*
%TD*%
D27*
%TO.C,U17*%
X148650000Y-97170000D03*
X148000000Y-97170000D03*
X147350000Y-97170000D03*
X147350000Y-99830000D03*
X148000000Y-99830000D03*
X148650000Y-99830000D03*
%TD*%
D17*
%TO.C,C7*%
X187969200Y-97652500D03*
X189869200Y-97652500D03*
%TD*%
D15*
%TO.C,C8*%
X187919200Y-105650000D03*
X187919200Y-103750000D03*
%TD*%
D22*
%TO.C,TP10*%
X125750000Y-132755600D03*
%TD*%
D19*
%TO.C,C60*%
X188000000Y-129050000D03*
X188000000Y-130950000D03*
%TD*%
D28*
%TO.C,L1*%
X188981700Y-95652500D03*
X186856700Y-95652500D03*
%TD*%
D22*
%TO.C,TP5*%
X133845000Y-107251551D03*
%TD*%
D12*
%TO.C,R50*%
X127337500Y-105001551D03*
X129162500Y-105001551D03*
%TD*%
D24*
%TO.C,TP13*%
X144922976Y-83830000D03*
%TD*%
D17*
%TO.C,C44*%
X160895951Y-118500000D03*
X162795951Y-118500000D03*
%TD*%
%TO.C,C26*%
X155895951Y-86500000D03*
X157795951Y-86500000D03*
%TD*%
%TO.C,C17*%
X126050000Y-95250000D03*
X127950000Y-95250000D03*
%TD*%
D21*
%TO.C,R73*%
X150845951Y-111912500D03*
X150845951Y-110087500D03*
%TD*%
D24*
%TO.C,TP15*%
X144922976Y-99830000D03*
%TD*%
D19*
%TO.C,C58*%
X186000000Y-129050000D03*
X186000000Y-130950000D03*
%TD*%
D17*
%TO.C,C9*%
X182469200Y-101652500D03*
X184369200Y-101652500D03*
%TD*%
D24*
%TO.C,TP29*%
X198500000Y-127000000D03*
%TD*%
D18*
%TO.C,R58*%
X150845951Y-82087500D03*
X150845951Y-83912500D03*
%TD*%
D29*
%TO.C,U8*%
X140515951Y-105850000D03*
X140515951Y-106500000D03*
X140515951Y-107150000D03*
X143175951Y-107150000D03*
X143175951Y-106500000D03*
X143175951Y-105850000D03*
%TD*%
D17*
%TO.C,C34*%
X155895951Y-102500000D03*
X157795951Y-102500000D03*
%TD*%
D16*
%TO.C,R5*%
X207500000Y-104800000D03*
X205675000Y-104800000D03*
%TD*%
D17*
%TO.C,C31*%
X148050000Y-102500000D03*
X149950000Y-102500000D03*
%TD*%
D21*
%TO.C,R35*%
X127885000Y-111918100D03*
X127885000Y-110093100D03*
%TD*%
D30*
%TO.C,D2*%
X191250000Y-91025000D03*
X191250000Y-88975000D03*
%TD*%
D31*
%TO.C,C12*%
X183950000Y-81500000D03*
X182050000Y-81500000D03*
%TD*%
D21*
%TO.C,R41*%
X121835000Y-111918100D03*
X121835000Y-110093100D03*
%TD*%
D27*
%TO.C,U32*%
X168650000Y-129170000D03*
X168000000Y-129170000D03*
X167350000Y-129170000D03*
X167350000Y-131830000D03*
X168000000Y-131830000D03*
X168650000Y-131830000D03*
%TD*%
D22*
%TO.C,TP8*%
X114655000Y-132755600D03*
%TD*%
D21*
%TO.C,R71*%
X167000000Y-94162500D03*
X167000000Y-92337500D03*
%TD*%
%TO.C,R82*%
X162750000Y-126162500D03*
X162750000Y-124337500D03*
%TD*%
D18*
%TO.C,R80*%
X170845951Y-130087500D03*
X170845951Y-131912500D03*
%TD*%
D13*
%TO.C,J16*%
X163570951Y-73500000D03*
D14*
X166110951Y-73500000D03*
%TD*%
D21*
%TO.C,R46*%
X117835000Y-111918100D03*
X117835000Y-110093100D03*
%TD*%
D24*
%TO.C,TP14*%
X164922976Y-83830000D03*
%TD*%
D18*
%TO.C,R74*%
X170845951Y-114087500D03*
X170845951Y-115912500D03*
%TD*%
%TO.C,R87*%
X192500000Y-129087500D03*
X192500000Y-130912500D03*
%TD*%
D21*
%TO.C,R63*%
X162750000Y-78162500D03*
X162750000Y-76337500D03*
%TD*%
D18*
%TO.C,R36*%
X128615000Y-129093100D03*
X128615000Y-130918100D03*
%TD*%
D21*
%TO.C,R43*%
X119835000Y-111918100D03*
X119835000Y-110093100D03*
%TD*%
D17*
%TO.C,C14*%
X207637500Y-101300000D03*
X209537500Y-101300000D03*
%TD*%
D21*
%TO.C,R40*%
X122615000Y-130918100D03*
X122615000Y-129093100D03*
%TD*%
D27*
%TO.C,U22*%
X142495951Y-113170000D03*
X141845951Y-113170000D03*
X141195951Y-113170000D03*
X141195951Y-115830000D03*
X141845951Y-115830000D03*
X142495951Y-115830000D03*
%TD*%
D15*
%TO.C,C1*%
X186000000Y-114950000D03*
X186000000Y-113050000D03*
%TD*%
D32*
%TO.C,H1*%
X110750000Y-75250000D03*
D33*
X110750000Y-75250000D03*
%TD*%
D18*
%TO.C,R23*%
X117825000Y-90777500D03*
X117825000Y-92602500D03*
%TD*%
D17*
%TO.C,C39*%
X148050000Y-118500000D03*
X149950000Y-118500000D03*
%TD*%
D34*
%TO.C,D3*%
X181269200Y-99152500D03*
X184569200Y-99152500D03*
%TD*%
D27*
%TO.C,U23*%
X148650000Y-113170000D03*
X148000000Y-113170000D03*
X147350000Y-113170000D03*
X147350000Y-115830000D03*
X148000000Y-115830000D03*
X148650000Y-115830000D03*
%TD*%
D35*
%TO.C,J6*%
X186525000Y-73500000D03*
D14*
X183985000Y-73500000D03*
%TD*%
D29*
%TO.C,U6*%
X140515951Y-73850000D03*
X140515951Y-74500000D03*
X140515951Y-75150000D03*
X143175951Y-75150000D03*
X143175951Y-74500000D03*
X143175951Y-73850000D03*
%TD*%
%TO.C,U7*%
X140515951Y-89850000D03*
X140515951Y-90500000D03*
X140515951Y-91150000D03*
X143175951Y-91150000D03*
X143175951Y-90500000D03*
X143175951Y-89850000D03*
%TD*%
D32*
%TO.C,H4*%
X207250000Y-131750000D03*
D33*
X207250000Y-131750000D03*
%TD*%
D23*
%TO.C,J12*%
X109000000Y-118200000D03*
D14*
X109000000Y-120740000D03*
X109000000Y-123280000D03*
X109000000Y-125820000D03*
%TD*%
D21*
%TO.C,R57*%
X130210000Y-78162500D03*
X130210000Y-76337500D03*
%TD*%
D24*
%TO.C,TP24*%
X194500000Y-132912500D03*
%TD*%
D12*
%TO.C,R93*%
X196087500Y-125000000D03*
X197912500Y-125000000D03*
%TD*%
D15*
%TO.C,C20*%
X145845951Y-91450000D03*
X145845951Y-89550000D03*
%TD*%
D21*
%TO.C,R64*%
X119985000Y-78162500D03*
X119985000Y-76337500D03*
%TD*%
D18*
%TO.C,R30*%
X134615000Y-129093100D03*
X134615000Y-130918100D03*
%TD*%
D17*
%TO.C,C36*%
X160895951Y-102500000D03*
X162795951Y-102500000D03*
%TD*%
D12*
%TO.C,R48*%
X135932500Y-107251551D03*
X137757500Y-107251551D03*
%TD*%
D27*
%TO.C,U19*%
X162495951Y-97170000D03*
X161845951Y-97170000D03*
X161195951Y-97170000D03*
X161195951Y-99830000D03*
X161845951Y-99830000D03*
X162495951Y-99830000D03*
%TD*%
D11*
%TO.C,U27*%
X173440951Y-115463800D03*
X174710951Y-115463800D03*
X175980951Y-115463800D03*
X177250951Y-115463800D03*
X177250951Y-110536200D03*
X175980951Y-110536200D03*
X174710951Y-110536200D03*
X173440951Y-110536200D03*
%TD*%
D36*
%TO.C,TP4*%
X120412500Y-82940000D03*
%TD*%
D35*
%TO.C,J14*%
X132750000Y-73500000D03*
D14*
X130210000Y-73500000D03*
%TD*%
D12*
%TO.C,R91*%
X202175000Y-123000000D03*
X204000000Y-123000000D03*
%TD*%
D28*
%TO.C,L2*%
X207225000Y-98800000D03*
X205100000Y-98800000D03*
%TD*%
D21*
%TO.C,R76*%
X162750000Y-110162500D03*
X162750000Y-108337500D03*
%TD*%
%TO.C,R65*%
X167000000Y-78162500D03*
X167000000Y-76337500D03*
%TD*%
%TO.C,R56*%
X132750000Y-78162500D03*
X132750000Y-76337500D03*
%TD*%
D16*
%TO.C,R21*%
X122237500Y-86940000D03*
X120412500Y-86940000D03*
%TD*%
D37*
%TO.C,U5*%
X134235000Y-115855600D03*
X132965000Y-115855600D03*
X131695000Y-115855600D03*
X130425000Y-115855600D03*
X129155000Y-115855600D03*
X127885000Y-115855600D03*
X126615000Y-115855600D03*
X125345000Y-115855600D03*
X124075000Y-115855600D03*
X122805000Y-115855600D03*
X121535000Y-115855600D03*
X120265000Y-115855600D03*
X120265000Y-125155600D03*
X121535000Y-125155600D03*
X122805000Y-125155600D03*
X124075000Y-125155600D03*
X125345000Y-125155600D03*
X126615000Y-125155600D03*
X127885000Y-125155600D03*
X129155000Y-125155600D03*
X130425000Y-125155600D03*
X131695000Y-125155600D03*
X132965000Y-125155600D03*
X134235000Y-125155600D03*
%TD*%
D38*
%TO.C,J3*%
X205800000Y-92000000D03*
D39*
X205800000Y-88500000D03*
%TD*%
D21*
%TO.C,R75*%
X170845951Y-111912500D03*
X170845951Y-110087500D03*
%TD*%
D17*
%TO.C,C13*%
X201400000Y-98800000D03*
X203300000Y-98800000D03*
%TD*%
D40*
%TO.C,U34*%
X184837500Y-119250000D03*
X184837500Y-119750000D03*
X184837500Y-120250000D03*
X184837500Y-120750000D03*
X184837500Y-121250000D03*
X184837500Y-121750000D03*
X184837500Y-122250000D03*
X184837500Y-122750000D03*
X184837500Y-123250000D03*
X184837500Y-123750000D03*
X184837500Y-124250000D03*
X184837500Y-124750000D03*
D41*
X186250000Y-126162500D03*
X186750000Y-126162500D03*
X187250000Y-126162500D03*
X187750000Y-126162500D03*
X188250000Y-126162500D03*
X188750000Y-126162500D03*
X189250000Y-126162500D03*
X189750000Y-126162500D03*
X190250000Y-126162500D03*
X190750000Y-126162500D03*
X191250000Y-126162500D03*
X191750000Y-126162500D03*
D40*
X193162500Y-124750000D03*
X193162500Y-124250000D03*
X193162500Y-123750000D03*
X193162500Y-123250000D03*
X193162500Y-122750000D03*
X193162500Y-122250000D03*
X193162500Y-121750000D03*
X193162500Y-121250000D03*
X193162500Y-120750000D03*
X193162500Y-120250000D03*
X193162500Y-119750000D03*
X193162500Y-119250000D03*
D41*
X191750000Y-117837500D03*
X191250000Y-117837500D03*
X190750000Y-117837500D03*
X190250000Y-117837500D03*
X189750000Y-117837500D03*
X189250000Y-117837500D03*
X188750000Y-117837500D03*
X188250000Y-117837500D03*
X187750000Y-117837500D03*
X187250000Y-117837500D03*
X186750000Y-117837500D03*
X186250000Y-117837500D03*
%TD*%
D16*
%TO.C,R100*%
X207162500Y-95750000D03*
X205337500Y-95750000D03*
%TD*%
D21*
%TO.C,R54*%
X114655000Y-130918100D03*
X114655000Y-129093100D03*
%TD*%
D23*
%TO.C,J4*%
X109000000Y-81130000D03*
D14*
X109000000Y-83670000D03*
X109000000Y-86210000D03*
X109000000Y-88750000D03*
X109000000Y-91290000D03*
X109000000Y-93830000D03*
X109000000Y-96370000D03*
X109000000Y-98910000D03*
%TD*%
D21*
%TO.C,R47*%
X116615000Y-130918100D03*
X116615000Y-129093100D03*
%TD*%
D17*
%TO.C,C35*%
X168050000Y-102500000D03*
X169950000Y-102500000D03*
%TD*%
D16*
%TO.C,R20*%
X137237500Y-83385000D03*
X135412500Y-83385000D03*
%TD*%
D24*
%TO.C,TP16*%
X164922976Y-99830000D03*
%TD*%
D17*
%TO.C,C48*%
X140895951Y-134500000D03*
X142795951Y-134500000D03*
%TD*%
D21*
%TO.C,R24*%
X117825000Y-85102500D03*
X117825000Y-83277500D03*
%TD*%
%TO.C,R67*%
X150845951Y-95912500D03*
X150845951Y-94087500D03*
%TD*%
D16*
%TO.C,R13*%
X122237500Y-94940000D03*
X120412500Y-94940000D03*
%TD*%
D27*
%TO.C,U20*%
X168650000Y-97170000D03*
X168000000Y-97170000D03*
X167350000Y-97170000D03*
X167350000Y-99830000D03*
X168000000Y-99830000D03*
X168650000Y-99830000D03*
%TD*%
D42*
%TO.C,U3*%
X203387500Y-100849999D03*
X203387500Y-101800000D03*
X203387500Y-102749998D03*
X205787500Y-102749998D03*
X205787500Y-100849999D03*
%TD*%
D27*
%TO.C,U10*%
X142495951Y-81170000D03*
X141845951Y-81170000D03*
X141195951Y-81170000D03*
X141195951Y-83830000D03*
X141845951Y-83830000D03*
X142495951Y-83830000D03*
%TD*%
D17*
%TO.C,C30*%
X175895951Y-86500000D03*
X177795951Y-86500000D03*
%TD*%
D27*
%TO.C,U29*%
X148650000Y-129170000D03*
X148000000Y-129170000D03*
X147350000Y-129170000D03*
X147350000Y-131830000D03*
X148000000Y-131830000D03*
X148650000Y-131830000D03*
%TD*%
D17*
%TO.C,C38*%
X175895951Y-102500000D03*
X177795951Y-102500000D03*
%TD*%
D12*
%TO.C,R95*%
X198587500Y-120100000D03*
X200412500Y-120100000D03*
%TD*%
D16*
%TO.C,R18*%
X137237500Y-85385000D03*
X135412500Y-85385000D03*
%TD*%
D24*
%TO.C,TP23*%
X188000000Y-132912500D03*
%TD*%
%TO.C,TP18*%
X164921976Y-115830000D03*
%TD*%
D27*
%TO.C,U31*%
X162495951Y-129170000D03*
X161845951Y-129170000D03*
X161195951Y-129170000D03*
X161195951Y-131830000D03*
X161845951Y-131830000D03*
X162495951Y-131830000D03*
%TD*%
D17*
%TO.C,C40*%
X140895951Y-118500000D03*
X142795951Y-118500000D03*
%TD*%
D36*
%TO.C,TP1*%
X117825000Y-94440000D03*
%TD*%
D12*
%TO.C,R10*%
X135412500Y-93385000D03*
X137237500Y-93385000D03*
%TD*%
D22*
%TO.C,TP12*%
X127790000Y-132755600D03*
%TD*%
D15*
%TO.C,C41*%
X155845951Y-107950000D03*
X155845951Y-106050000D03*
%TD*%
D24*
%TO.C,TP28*%
X196500000Y-127000000D03*
%TD*%
D12*
%TO.C,R89*%
X190837500Y-132912500D03*
X192662500Y-132912500D03*
%TD*%
D15*
%TO.C,C19*%
X145845951Y-75450000D03*
X145845951Y-73550000D03*
%TD*%
D12*
%TO.C,R55*%
X119682500Y-107251551D03*
X121507500Y-107251551D03*
%TD*%
D43*
%TO.C,J5*%
X181419200Y-95975000D03*
D14*
X181419200Y-93435000D03*
%TD*%
D18*
%TO.C,R2*%
X191419200Y-99740000D03*
X191419200Y-101565000D03*
%TD*%
D21*
%TO.C,R79*%
X150845951Y-127912500D03*
X150845951Y-126087500D03*
%TD*%
D26*
%TO.C,J10*%
X181250000Y-89500000D03*
%TD*%
D18*
%TO.C,R29*%
X136615000Y-129093100D03*
X136615000Y-130918100D03*
%TD*%
D16*
%TO.C,R17*%
X122237500Y-90940000D03*
X120412500Y-90940000D03*
%TD*%
D22*
%TO.C,TP7*%
X131835000Y-107251551D03*
%TD*%
D29*
%TO.C,U9*%
X140515951Y-121850000D03*
X140515951Y-122500000D03*
X140515951Y-123150000D03*
X143175951Y-123150000D03*
X143175951Y-122500000D03*
X143175951Y-121850000D03*
%TD*%
D21*
%TO.C,R3*%
X185919200Y-105612500D03*
X185919200Y-103787500D03*
%TD*%
D18*
%TO.C,R1*%
X183919200Y-103787500D03*
X183919200Y-105612500D03*
%TD*%
D21*
%TO.C,R83*%
X167000000Y-126162500D03*
X167000000Y-124337500D03*
%TD*%
D15*
%TO.C,C2*%
X148000000Y-91450000D03*
X148000000Y-89550000D03*
%TD*%
D18*
%TO.C,R85*%
X182000000Y-125087500D03*
X182000000Y-126912500D03*
%TD*%
D24*
%TO.C,TP22*%
X182000000Y-123250000D03*
%TD*%
D44*
%TO.C,D4*%
X200087500Y-104050000D03*
X200087500Y-100750000D03*
%TD*%
D17*
%TO.C,C15*%
X195637500Y-104300000D03*
X197537500Y-104300000D03*
%TD*%
D30*
%TO.C,D5*%
X193250000Y-91025000D03*
X193250000Y-88975000D03*
%TD*%
D11*
%TO.C,U33*%
X173440951Y-131463800D03*
X174710951Y-131463800D03*
X175980951Y-131463800D03*
X177250951Y-131463800D03*
X177250951Y-126536200D03*
X175980951Y-126536200D03*
X174710951Y-126536200D03*
X173440951Y-126536200D03*
%TD*%
D16*
%TO.C,R9*%
X122237500Y-98940000D03*
X120412500Y-98940000D03*
%TD*%
D45*
%TO.C,J1*%
X200500000Y-73750700D03*
X191859996Y-73750700D03*
D46*
X200500000Y-79110700D03*
X191859996Y-79110700D03*
D47*
X199179998Y-79489701D03*
X198679999Y-79489701D03*
X198179997Y-79489701D03*
X197679998Y-79489701D03*
X197179999Y-79489701D03*
X196679998Y-79489701D03*
X195679998Y-79489701D03*
X195179997Y-79489701D03*
X194679998Y-79489701D03*
X194179999Y-79489701D03*
X193679997Y-79489701D03*
X193179998Y-79489701D03*
D48*
X193079998Y-78189699D03*
D47*
X193929997Y-78189699D03*
X194429999Y-78189699D03*
X194929998Y-78189699D03*
X195429997Y-78189699D03*
X195929998Y-78189699D03*
X196429998Y-78189699D03*
X196929999Y-78189699D03*
X197429998Y-78189699D03*
X197929997Y-78189699D03*
X198429999Y-78189699D03*
D48*
X199279998Y-78189699D03*
%TD*%
D12*
%TO.C,R90*%
X202175000Y-125540000D03*
X204000000Y-125540000D03*
%TD*%
D17*
%TO.C,C50*%
X155895951Y-134500000D03*
X157795951Y-134500000D03*
%TD*%
D22*
%TO.C,TP11*%
X123835000Y-107251551D03*
%TD*%
D16*
%TO.C,R97*%
X192912500Y-81750000D03*
X191087500Y-81750000D03*
%TD*%
D15*
%TO.C,C37*%
X175845951Y-91950000D03*
X175845951Y-90050000D03*
%TD*%
D35*
%TO.C,J15*%
X122525000Y-73500000D03*
D14*
X119985000Y-73500000D03*
%TD*%
D17*
%TO.C,C32*%
X140895951Y-102500000D03*
X142795951Y-102500000D03*
%TD*%
D27*
%TO.C,U25*%
X162495951Y-113170000D03*
X161845951Y-113170000D03*
X161195951Y-113170000D03*
X161195951Y-115830000D03*
X161845951Y-115830000D03*
X162495951Y-115830000D03*
%TD*%
D12*
%TO.C,R101*%
X188087500Y-93250000D03*
X189912500Y-93250000D03*
%TD*%
D18*
%TO.C,R4*%
X190000000Y-103787500D03*
X190000000Y-105612500D03*
%TD*%
D12*
%TO.C,R52*%
X134722500Y-132755600D03*
X136547500Y-132755600D03*
%TD*%
D21*
%TO.C,R102*%
X199500000Y-92912500D03*
X199500000Y-91087500D03*
%TD*%
D12*
%TO.C,R94*%
X196087500Y-118100000D03*
X197912500Y-118100000D03*
%TD*%
D18*
%TO.C,R60*%
X170845951Y-82087500D03*
X170845951Y-83912500D03*
%TD*%
D43*
%TO.C,J7*%
X194750000Y-96775000D03*
D14*
X194750000Y-94235000D03*
%TD*%
D12*
%TO.C,R8*%
X135412500Y-95385000D03*
X137237500Y-95385000D03*
%TD*%
D36*
%TO.C,TP21*%
X182000000Y-120250000D03*
%TD*%
D18*
%TO.C,R33*%
X130615000Y-129093100D03*
X130615000Y-130918100D03*
%TD*%
D19*
%TO.C,C57*%
X184000000Y-129050000D03*
X184000000Y-130950000D03*
%TD*%
D11*
%TO.C,U12*%
X153440951Y-83463800D03*
X154710951Y-83463800D03*
X155980951Y-83463800D03*
X157250951Y-83463800D03*
X157250951Y-78536200D03*
X155980951Y-78536200D03*
X154710951Y-78536200D03*
X153440951Y-78536200D03*
%TD*%
D21*
%TO.C,R27*%
X135835000Y-111918100D03*
X135835000Y-110093100D03*
%TD*%
D17*
%TO.C,C27*%
X168050000Y-86500000D03*
X169950000Y-86500000D03*
%TD*%
D18*
%TO.C,R72*%
X150845951Y-114087500D03*
X150845951Y-115912500D03*
%TD*%
D11*
%TO.C,U15*%
X173440951Y-83463800D03*
X174710951Y-83463800D03*
X175980951Y-83463800D03*
X177250951Y-83463800D03*
X177250951Y-78536200D03*
X175980951Y-78536200D03*
X174710951Y-78536200D03*
X173440951Y-78536200D03*
%TD*%
D26*
%TO.C,J8*%
X137000000Y-98500000D03*
%TD*%
D27*
%TO.C,U13*%
X162495951Y-81170000D03*
X161845951Y-81170000D03*
X161195951Y-81170000D03*
X161195951Y-83830000D03*
X161845951Y-83830000D03*
X162495951Y-83830000D03*
%TD*%
D19*
%TO.C,C3*%
X160500000Y-104800000D03*
X160500000Y-106700000D03*
%TD*%
D24*
%TO.C,TP19*%
X144923976Y-131830000D03*
%TD*%
D15*
%TO.C,C53*%
X175845951Y-123950000D03*
X175845951Y-122050000D03*
%TD*%
D30*
%TO.C,D7*%
X197250000Y-91025000D03*
X197250000Y-88975000D03*
%TD*%
D24*
%TO.C,TP27*%
X196500000Y-116100000D03*
%TD*%
D16*
%TO.C,R14*%
X137237500Y-89385000D03*
X135412500Y-89385000D03*
%TD*%
D15*
%TO.C,C21*%
X145845951Y-107450000D03*
X145845951Y-105550000D03*
%TD*%
D23*
%TO.C,J2*%
X209000000Y-81225000D03*
D14*
X209000000Y-83765000D03*
%TD*%
D32*
%TO.C,H3*%
X110750000Y-131750000D03*
D33*
X110750000Y-131750000D03*
%TD*%
D24*
%TO.C,TP26*%
X196500000Y-120100000D03*
%TD*%
D27*
%TO.C,U26*%
X168650000Y-113170000D03*
X168000000Y-113170000D03*
X167350000Y-113170000D03*
X167350000Y-115830000D03*
X168000000Y-115830000D03*
X168650000Y-115830000D03*
%TD*%
D32*
%TO.C,H2*%
X207250000Y-75250000D03*
D33*
X207250000Y-75250000D03*
%TD*%
D49*
%TO.C,D1*%
X193500000Y-84000000D03*
X191000000Y-84000000D03*
%TD*%
D36*
%TO.C,TP2*%
X117825000Y-88940000D03*
%TD*%
D21*
%TO.C,R96*%
X192000000Y-114912500D03*
X192000000Y-113087500D03*
%TD*%
%TO.C,R37*%
X125835000Y-111918100D03*
X125835000Y-110093100D03*
%TD*%
%TO.C,R34*%
X129835000Y-111918100D03*
X129835000Y-110093100D03*
%TD*%
D15*
%TO.C,C45*%
X175845951Y-107950000D03*
X175845951Y-106050000D03*
%TD*%
D19*
%TO.C,C10*%
X181600000Y-84450000D03*
X181600000Y-86350000D03*
%TD*%
D17*
%TO.C,C43*%
X168050000Y-118500000D03*
X169950000Y-118500000D03*
%TD*%
%TO.C,C23*%
X148050000Y-86500000D03*
X149950000Y-86500000D03*
%TD*%
D21*
%TO.C,R42*%
X120615000Y-130918100D03*
X120615000Y-129093100D03*
%TD*%
D16*
%TO.C,R19*%
X122237500Y-88940000D03*
X120412500Y-88940000D03*
%TD*%
D15*
%TO.C,C25*%
X155845951Y-75950000D03*
X155845951Y-74050000D03*
%TD*%
D18*
%TO.C,R68*%
X170845951Y-98087500D03*
X170845951Y-99912500D03*
%TD*%
D16*
%TO.C,R16*%
X137237500Y-87385000D03*
X135412500Y-87385000D03*
%TD*%
D50*
%TO.C,U2*%
X188800000Y-84024200D03*
D51*
X186500000Y-90475800D03*
D50*
X186500000Y-84024200D03*
X184200000Y-84024200D03*
%TD*%
D43*
%TO.C,J20*%
X209000000Y-125540000D03*
D14*
X209000000Y-123000000D03*
X209000000Y-120460000D03*
X209000000Y-117920000D03*
X209000000Y-115380000D03*
X209000000Y-112840000D03*
X209000000Y-110300000D03*
%TD*%
D17*
%TO.C,C54*%
X175895951Y-134500000D03*
X177795951Y-134500000D03*
%TD*%
D21*
%TO.C,R84*%
X182000000Y-118412500D03*
X182000000Y-116587500D03*
%TD*%
D52*
%TO.C,F1*%
X200300000Y-83712500D03*
X200300000Y-86687500D03*
%TD*%
D24*
%TO.C,TP17*%
X144921976Y-115830000D03*
%TD*%
D21*
%TO.C,R45*%
X118615000Y-130918100D03*
X118615000Y-129093100D03*
%TD*%
%TO.C,R81*%
X170845951Y-127912500D03*
X170845951Y-126087500D03*
%TD*%
D30*
%TO.C,D6*%
X195250000Y-91025000D03*
X195250000Y-88975000D03*
%TD*%
D28*
%TO.C,L3*%
X199662500Y-98800000D03*
X197537500Y-98800000D03*
%TD*%
D36*
%TO.C,TP3*%
X117825000Y-86940000D03*
%TD*%
D15*
%TO.C,C49*%
X155845951Y-123950000D03*
X155845951Y-122050000D03*
%TD*%
D17*
%TO.C,C11*%
X186550000Y-81500000D03*
X188450000Y-81500000D03*
%TD*%
D13*
%TO.C,J17*%
X163570951Y-89500000D03*
D14*
X166110951Y-89500000D03*
%TD*%
D21*
%TO.C,R69*%
X170845951Y-95912500D03*
X170845951Y-94087500D03*
%TD*%
D16*
%TO.C,R53*%
X118952500Y-132755600D03*
X117127500Y-132755600D03*
%TD*%
%TO.C,R12*%
X122237500Y-96940000D03*
X120412500Y-96940000D03*
%TD*%
D11*
%TO.C,U18*%
X153440951Y-99463800D03*
X154710951Y-99463800D03*
X155980951Y-99463800D03*
X157250951Y-99463800D03*
X157250951Y-94536200D03*
X155980951Y-94536200D03*
X154710951Y-94536200D03*
X153440951Y-94536200D03*
%TD*%
D27*
%TO.C,U16*%
X142495951Y-97170000D03*
X141845951Y-97170000D03*
X141195951Y-97170000D03*
X141195951Y-99830000D03*
X141845951Y-99830000D03*
X142495951Y-99830000D03*
%TD*%
D15*
%TO.C,C33*%
X155845951Y-91950000D03*
X155845951Y-90050000D03*
%TD*%
D17*
%TO.C,C42*%
X155895951Y-118500000D03*
X157795951Y-118500000D03*
%TD*%
D15*
%TO.C,C18*%
X136500000Y-125450000D03*
X136500000Y-123550000D03*
%TD*%
D21*
%TO.C,R77*%
X167000000Y-110162500D03*
X167000000Y-108337500D03*
%TD*%
D17*
%TO.C,C46*%
X175895951Y-118500000D03*
X177795951Y-118500000D03*
%TD*%
D18*
%TO.C,R66*%
X150845951Y-98087500D03*
X150845951Y-99912500D03*
%TD*%
D21*
%TO.C,R59*%
X150845951Y-79912500D03*
X150845951Y-78087500D03*
%TD*%
D18*
%TO.C,R78*%
X150845951Y-130087500D03*
X150845951Y-131912500D03*
%TD*%
D27*
%TO.C,U14*%
X168650000Y-81170000D03*
X168000000Y-81170000D03*
X167350000Y-81170000D03*
X167350000Y-83830000D03*
X168000000Y-83830000D03*
X168650000Y-83830000D03*
%TD*%
M02*
