%TF.GenerationSoftware,KiCad,Pcbnew,7.0.9*%
%TF.CreationDate,2024-02-06T11:46:51-05:00*%
%TF.ProjectId,fydp,66796470-2e6b-4696-9361-645f70636258,rev?*%
%TF.SameCoordinates,Original*%
%TF.FileFunction,Soldermask,Bot*%
%TF.FilePolarity,Negative*%
%FSLAX46Y46*%
G04 Gerber Fmt 4.6, Leading zero omitted, Abs format (unit mm)*
G04 Created by KiCad (PCBNEW 7.0.9) date 2024-02-06 11:46:51*
%MOMM*%
%LPD*%
G01*
G04 APERTURE LIST*
G04 Aperture macros list*
%AMRoundRect*
0 Rectangle with rounded corners*
0 $1 Rounding radius*
0 $2 $3 $4 $5 $6 $7 $8 $9 X,Y pos of 4 corners*
0 Add a 4 corners polygon primitive as box body*
4,1,4,$2,$3,$4,$5,$6,$7,$8,$9,$2,$3,0*
0 Add four circle primitives for the rounded corners*
1,1,$1+$1,$2,$3*
1,1,$1+$1,$4,$5*
1,1,$1+$1,$6,$7*
1,1,$1+$1,$8,$9*
0 Add four rect primitives between the rounded corners*
20,1,$1+$1,$2,$3,$4,$5,0*
20,1,$1+$1,$4,$5,$6,$7,0*
20,1,$1+$1,$6,$7,$8,$9,0*
20,1,$1+$1,$8,$9,$2,$3,0*%
G04 Aperture macros list end*
%ADD10RoundRect,0.038000X0.850000X-0.850000X0.850000X0.850000X-0.850000X0.850000X-0.850000X-0.850000X0*%
%ADD11O,1.776000X1.776000*%
%ADD12RoundRect,0.038000X-0.850000X-0.850000X0.850000X-0.850000X0.850000X0.850000X-0.850000X0.850000X0*%
%ADD13C,2.717600*%
%ADD14C,2.676000*%
%ADD15C,4.476000*%
%ADD16RoundRect,0.038000X-0.850000X0.850000X-0.850000X-0.850000X0.850000X-0.850000X0.850000X0.850000X0*%
%ADD17RoundRect,0.038000X1.200000X-1.200000X1.200000X1.200000X-1.200000X1.200000X-1.200000X-1.200000X0*%
%ADD18C,2.476000*%
%ADD19RoundRect,0.038000X0.850000X0.850000X-0.850000X0.850000X-0.850000X-0.850000X0.850000X-0.850000X0*%
%ADD20O,1.244400X2.743000*%
%ADD21O,1.244400X2.235000*%
G04 APERTURE END LIST*
D10*
%TO.C,J19*%
X163570951Y-121500000D03*
D11*
X166110951Y-121500000D03*
%TD*%
D10*
%TO.C,J18*%
X163570951Y-105500000D03*
D11*
X166110951Y-105500000D03*
%TD*%
D12*
%TO.C,J11*%
X109000000Y-105920000D03*
D11*
X109000000Y-108460000D03*
X109000000Y-111000000D03*
X109000000Y-113540000D03*
%TD*%
D13*
%TO.C,J9*%
X181250000Y-113000000D03*
%TD*%
%TO.C,J13*%
X137000000Y-116500000D03*
%TD*%
D10*
%TO.C,J16*%
X163570951Y-73500000D03*
D11*
X166110951Y-73500000D03*
%TD*%
D14*
%TO.C,H1*%
X110750000Y-75250000D03*
D15*
X110750000Y-75250000D03*
%TD*%
D16*
%TO.C,J6*%
X186525000Y-73500000D03*
D11*
X183985000Y-73500000D03*
%TD*%
D14*
%TO.C,H4*%
X207250000Y-131750000D03*
D15*
X207250000Y-131750000D03*
%TD*%
D12*
%TO.C,J12*%
X109000000Y-118200000D03*
D11*
X109000000Y-120740000D03*
X109000000Y-123280000D03*
X109000000Y-125820000D03*
%TD*%
D16*
%TO.C,J14*%
X132750000Y-73500000D03*
D11*
X130210000Y-73500000D03*
%TD*%
D17*
%TO.C,J3*%
X205800000Y-92000000D03*
D18*
X205800000Y-88500000D03*
%TD*%
D12*
%TO.C,J4*%
X109000000Y-81130000D03*
D11*
X109000000Y-83670000D03*
X109000000Y-86210000D03*
X109000000Y-88750000D03*
X109000000Y-91290000D03*
X109000000Y-93830000D03*
X109000000Y-96370000D03*
X109000000Y-98910000D03*
%TD*%
D19*
%TO.C,J5*%
X181419200Y-95975000D03*
D11*
X181419200Y-93435000D03*
%TD*%
D13*
%TO.C,J10*%
X181250000Y-89500000D03*
%TD*%
D20*
%TO.C,J1*%
X200500000Y-73750700D03*
X191859996Y-73750700D03*
D21*
X200500000Y-79110700D03*
X191859996Y-79110700D03*
%TD*%
D16*
%TO.C,J15*%
X122525000Y-73500000D03*
D11*
X119985000Y-73500000D03*
%TD*%
D19*
%TO.C,J7*%
X194750000Y-96775000D03*
D11*
X194750000Y-94235000D03*
%TD*%
D13*
%TO.C,J8*%
X137000000Y-98500000D03*
%TD*%
D12*
%TO.C,J2*%
X209000000Y-81225000D03*
D11*
X209000000Y-83765000D03*
%TD*%
D14*
%TO.C,H3*%
X110750000Y-131750000D03*
D15*
X110750000Y-131750000D03*
%TD*%
D14*
%TO.C,H2*%
X207250000Y-75250000D03*
D15*
X207250000Y-75250000D03*
%TD*%
D19*
%TO.C,J20*%
X209000000Y-125540000D03*
D11*
X209000000Y-123000000D03*
X209000000Y-120460000D03*
X209000000Y-117920000D03*
X209000000Y-115380000D03*
X209000000Y-112840000D03*
X209000000Y-110300000D03*
%TD*%
D10*
%TO.C,J17*%
X163570951Y-89500000D03*
D11*
X166110951Y-89500000D03*
%TD*%
M02*
